{"extensionsUsed":["CVTOOLS_babylon_mesh","CVTOOLS_left_handed","CVTOOLS_unity_metadata","KHR_materials_specular","KHR_materials_clearcoat","KHR_texture_transform"],"extensionsRequired":["CVTOOLS_babylon_mesh","CVTOOLS_left_handed"],"accessors":[{"bufferView":0,"componentType":5126,"count":1481,"type":"VEC3","max":[253.68113708496094,467.94271850585938,-910.559326171875],"min":[-253.68113708496094,-417.56439208984375,-1400.93603515625],"name":"vertices"},{"bufferView":1,"componentType":5126,"count":1481,"type":"VEC3","max":[0.99998772144317627,1.0,1.0],"min":[-0.99998772144317627,-1.0,-1.0],"name":"normals"},{"bufferView":2,"componentType":5126,"count":1481,"type":"VEC4","max":[1.0,0.997878909111023,1.0,-1.0],"min":[-1.0,-0.99787938594818115,-1.0,-1.0],"name":"tangents"},{"bufferView":3,"componentType":5126,"count":1481,"type":"VEC2","max":[0.99054098129272461,0.99525600671768188],"min":[0.0061019998975098133,0.0074030160903930664],"name":"uv"},{"bufferView":4,"componentType":5126,"count":1481,"type":"VEC2","max":[0.99054098129272461,0.99525600671768188],"min":[0.0061019998975098133,0.0074030160903930664],"name":"uv2"},{"bufferView":5,"componentType":5125,"count":6420,"type":"SCALAR","max":[1480.0],"min":[0.0],"name":"indices"},{"bufferView":6,"componentType":5126,"count":5134,"type":"VEC3","max":[0.0069967447780072689,0.0069967443123459816,0.010037030093371868],"min":[-0.0069967447780072689,-0.0069967447780072689,-1.3183951523387805E-05],"name":"vertices"},{"bufferView":7,"componentType":5126,"count":5134,"type":"VEC3","max":[0.99992859363555908,0.99992871284484863,1.0],"min":[-0.99992871284484863,-0.99992871284484863,-1.0],"name":"normals"},{"bufferView":8,"componentType":5126,"count":5134,"type":"VEC4","max":[1.0,1.0,1.0,1.0],"min":[-0.99996507167816162,-1.0,-1.0,-1.0],"name":"tangents"},{"bufferView":9,"componentType":5126,"count":5134,"type":"VEC2","max":[0.99588453769683838,0.99589061737060547],"min":[0.0041118860244750977,0.006245732307434082],"name":"uv"},{"bufferView":10,"componentType":5126,"count":5134,"type":"VEC2","max":[0.99588453769683838,0.99589061737060547],"min":[0.0041118860244750977,0.006245732307434082],"name":"uv2"},{"bufferView":11,"componentType":5125,"count":23784,"type":"SCALAR","max":[5133.0],"min":[0.0],"name":"indices"},{"bufferView":12,"componentType":5126,"count":816,"type":"VEC3","max":[0.00135786400642246,0.0014602395240217447,0.0093582635745406151],"min":[-0.0016807311912998557,-0.0013143043033778667,0.0092014065012335777],"name":"vertices"},{"bufferView":13,"componentType":5126,"count":816,"type":"VEC3","max":[1.0,1.0,0.0],"min":[-1.0,-1.0,-1.0],"name":"normals"},{"bufferView":14,"componentType":5126,"count":816,"type":"VEC4","max":[0.98765122890472412,0.96640843152999878,1.0,-1.0],"min":[-0.98770999908447266,-0.86605930328369141,-1.0,-1.0],"name":"tangents"},{"bufferView":15,"componentType":5126,"count":816,"type":"VEC2","max":[0.98160183429718018,0.99588817358016968],"min":[0.0041131973266601563,0.10209524631500244],"name":"uv"},{"bufferView":16,"componentType":5126,"count":816,"type":"VEC2","max":[0.98160183429718018,0.99588817358016968],"min":[0.0041131973266601563,0.10209524631500244],"name":"uv2"},{"bufferView":17,"componentType":5125,"count":2136,"type":"SCALAR","max":[815.0],"min":[0.0],"name":"indices"},{"bufferView":18,"componentType":5126,"count":76,"type":"VEC3","max":[0.01462362427264452,0.21935437619686127,0.083459325134754181],"min":[-0.01462362427264452,-1.3597250436703234E-08,-0.083459362387657166],"name":"vertices"},{"bufferView":19,"componentType":5126,"count":76,"type":"VEC3","max":[0.90471541881561279,0.83437943458557129,0.75441217422485352],"min":[-0.90471512079238892,-0.83437943458557129,-0.75496256351470947],"name":"normals"},{"bufferView":20,"componentType":5126,"count":76,"type":"VEC4","max":[0.73044312000274658,0.95347499847412109,0.96346360445022583,-1.0],"min":[-1.0,-0.40832027792930603,-0.96346360445022583,-1.0],"name":"tangents"},{"bufferView":21,"componentType":5126,"count":76,"type":"VEC2","max":[0.97830766439437866,0.979128360748291],"min":[0.022906174883246422,0.198256254196167],"name":"uv"},{"bufferView":22,"componentType":5126,"count":76,"type":"VEC2","max":[0.97830766439437866,0.979128360748291],"min":[0.022906174883246422,0.198256254196167],"name":"uv2"},{"bufferView":23,"componentType":5125,"count":240,"type":"SCALAR","max":[75.0],"min":[0.0],"name":"indices"},{"bufferView":24,"componentType":5126,"count":32,"type":"VEC3","max":[4.0,9.5,0.050810813903808594],"min":[-4.0,-4.76837158203125E-07,-1.2240548133850098],"name":"vertices"},{"bufferView":25,"componentType":5126,"count":32,"type":"VEC3","max":[0.0,1.0,1.0],"min":[0.0,-1.0,-1.0],"name":"normals"},{"bufferView":26,"componentType":5126,"count":32,"type":"VEC4","max":[1.0,0.0,1.0,-1.0],"min":[-1.0,-0.98994946479797363,0.0,-1.0],"name":"tangents"},{"bufferView":27,"componentType":5126,"count":32,"type":"VEC2","max":[1.0000218152999878,1.0000004768371582],"min":[2.21022310142871E-06,-5.8412551879882813E-06],"name":"uv"},{"bufferView":28,"componentType":5126,"count":32,"type":"VEC2","max":[0.97317761182785034,0.99609375],"min":[0.00390625,0.026824116706848145],"name":"uv2"},{"bufferView":29,"componentType":5125,"count":60,"type":"SCALAR","max":[31.0],"min":[0.0],"name":"indices"},{"bufferView":30,"componentType":5126,"count":64,"type":"VEC3","max":[3.1735000610351563,9.5,2.00002384185791],"min":[-2.0000002384185791,-4.76837158203125E-07,-3.1732437610626221],"name":"vertices"},{"bufferView":31,"componentType":5126,"count":64,"type":"VEC3","max":[1.0,1.0,1.0],"min":[-1.0,-1.0,-1.0],"name":"normals"},{"bufferView":32,"componentType":5126,"count":64,"type":"VEC4","max":[1.0,0.0,1.0,1.0],"min":[-1.0,-0.98995006084442139,-1.0,-1.0],"name":"tangents"},{"bufferView":33,"componentType":5126,"count":64,"type":"VEC2","max":[1.0000218152999878,1.0000004768371582],"min":[2.21022310142871E-06,-5.8412551879882813E-06],"name":"uv"},{"bufferView":34,"componentType":5126,"count":64,"type":"VEC2","max":[0.97926181554794312,0.99609375],"min":[0.00390625,0.017525374889373779],"name":"uv2"},{"bufferView":35,"componentType":5125,"count":120,"type":"SCALAR","max":[63.0],"min":[0.0],"name":"indices"},{"bufferView":36,"componentType":5126,"count":64,"type":"VEC3","max":[3.1735000610351563,9.5,2.00002384185791],"min":[-2.0000002384185791,-4.76837158203125E-07,-3.1732437610626221],"name":"vertices"},{"bufferView":37,"componentType":5126,"count":64,"type":"VEC3","max":[1.0,1.0,1.0],"min":[-1.0,-1.0,-1.0],"name":"normals"},{"bufferView":38,"componentType":5126,"count":64,"type":"VEC4","max":[1.0,0.0,1.0,1.0],"min":[-1.0,-0.98995006084442139,-1.0,-1.0],"name":"tangents"},{"bufferView":39,"componentType":5126,"count":64,"type":"VEC2","max":[1.0000218152999878,1.0000004768371582],"min":[2.21022310142871E-06,-5.8412551879882813E-06],"name":"uv"},{"bufferView":40,"componentType":5126,"count":64,"type":"VEC2","max":[0.97926181554794312,0.99609375],"min":[0.00390625,0.017525374889373779],"name":"uv2"},{"bufferView":41,"componentType":5125,"count":120,"type":"SCALAR","max":[63.0],"min":[0.0],"name":"indices"},{"bufferView":42,"componentType":5126,"count":187,"type":"VEC3","max":[4.0,9.5,0.63743281364440918],"min":[-4.0,-4.76837158203125E-07,-0.63743281364440918],"name":"vertices"},{"bufferView":43,"componentType":5126,"count":187,"type":"VEC3","max":[1.0,1.0,1.0],"min":[-1.0,-1.0,-1.0],"name":"normals"},{"bufferView":44,"componentType":5126,"count":187,"type":"VEC4","max":[1.0,1.0,1.0,1.0],"min":[-1.0,-0.98994958400726318,-1.0,-1.0],"name":"tangents"},{"bufferView":45,"componentType":5126,"count":187,"type":"VEC2","max":[3.8917379379272461,0.9999997615814209],"min":[-6.5256199836730957,-5.8412551879882813E-06],"name":"uv"},{"bufferView":46,"componentType":5126,"count":187,"type":"VEC2","max":[0.98414009809494019,0.99609375],"min":[0.00390625,0.022443473339080811],"name":"uv2"},{"bufferView":47,"componentType":5125,"count":312,"type":"SCALAR","max":[186.0],"min":[0.0],"name":"indices"},{"bufferView":48,"componentType":5126,"count":4,"type":"VEC3","max":[1.9694702625274658,3.6638751029968262,5.9692104059649864E-07],"min":[-1.9694702625274658,-3.6638751029968262,-5.9692104059649864E-07],"name":"vertices"},{"bufferView":49,"componentType":5126,"count":4,"type":"VEC3","max":[0.0,0.0,1.0],"min":[0.0,0.0,1.0],"name":"normals"},{"bufferView":50,"componentType":5126,"count":4,"type":"VEC4","max":[1.0,0.0,0.0,1.0],"min":[1.0,0.0,0.0,1.0],"name":"tangents"},{"bufferView":51,"componentType":5126,"count":4,"type":"VEC2","max":[1.0009154081344604,1.0],"min":[0.49843430519104004,0.0],"name":"uv"},{"bufferView":52,"componentType":5126,"count":4,"type":"VEC2","max":[0.9961543083190918,0.99609375],"min":[0.00390625,0.4627232551574707],"name":"uv2"},{"bufferView":53,"componentType":5125,"count":6,"type":"SCALAR","max":[3.0],"min":[0.0],"name":"indices"},{"bufferView":54,"componentType":5126,"count":448,"type":"VEC3","max":[2.0303239822387695,3.7035000324249268,0.10335064679384232],"min":[-2.0303239822387695,-3.7035002708435059,-0.10335065424442291],"name":"vertices"},{"bufferView":55,"componentType":5126,"count":448,"type":"VEC3","max":[1.0,1.0,1.0],"min":[-1.0,-1.0,-1.0],"name":"normals"},{"bufferView":56,"componentType":5126,"count":448,"type":"VEC4","max":[1.0,1.0,1.0,-1.0],"min":[-1.0,-1.0,-1.0,-1.0],"name":"tangents"},{"bufferView":57,"componentType":5126,"count":448,"type":"VEC2","max":[0.40822383761405945,0.99315792322158813],"min":[0.0042433198541402817,0.00451505184173584],"name":"uv"},{"bufferView":58,"componentType":5126,"count":448,"type":"VEC2","max":[0.98849928379058838,0.99609375],"min":[0.00390625,0.006650090217590332],"name":"uv2"},{"bufferView":59,"componentType":5125,"count":672,"type":"SCALAR","max":[447.0],"min":[0.0],"name":"indices"},{"bufferView":60,"componentType":5126,"count":25131,"type":"VEC3","max":[0.68259298801422119,1.1975585222244263,1.9401671886444092],"min":[-0.2524246871471405,-1.0815731287002563,-2.6098437309265137],"name":"vertices"},{"bufferView":61,"componentType":5126,"count":25131,"type":"VEC3","max":[1.0,1.0,1.0],"min":[-0.996397078037262,-1.0,-1.0],"name":"normals"},{"bufferView":62,"componentType":5126,"count":25131,"type":"VEC4","max":[1.0,1.0,1.0,1.0],"min":[-1.0,-1.0,-1.0,-1.0],"name":"tangents"},{"bufferView":63,"componentType":5126,"count":25131,"type":"VEC2","max":[0.99999886751174927,1.0825831890106201],"min":[0.0,-0.082519888877868652],"name":"uv"},{"bufferView":64,"componentType":5126,"count":25131,"type":"VEC2","max":[0.99999886751174927,1.0825831890106201],"min":[0.0,-0.082519888877868652],"name":"uv2"},{"bufferView":65,"componentType":5125,"count":79260,"type":"SCALAR","max":[25130.0],"min":[0.0],"name":"indices"},{"bufferView":66,"componentType":5126,"count":3495,"type":"VEC3","max":[-0.0046664397232234478,3.8179278373718262,0.088607035577297211],"min":[-1.2424207925796509,0.0025515698362141848,-4.92267370223999],"name":"vertices"},{"bufferView":67,"componentType":5126,"count":3495,"type":"VEC3","max":[1.0,1.0,1.0],"min":[-1.0,-1.0,-1.0],"name":"normals"},{"bufferView":68,"componentType":5126,"count":3495,"type":"VEC4","max":[1.0,1.0,1.0,1.0],"min":[-1.0,-1.0,-1.0,-1.0],"name":"tangents"},{"bufferView":69,"componentType":5126,"count":3495,"type":"VEC2","max":[0.99500000476837158,0.99500000476837158],"min":[0.004999999888241291,0.0449489951133728],"name":"uv"},{"bufferView":70,"componentType":5126,"count":3495,"type":"VEC2","max":[0.99500000476837158,0.99500000476837158],"min":[0.004999999888241291,0.0449489951133728],"name":"uv2"},{"bufferView":71,"componentType":5125,"count":10092,"type":"SCALAR","max":[3494.0],"min":[0.0],"name":"indices"},{"bufferView":72,"componentType":5126,"count":4,"type":"VEC3","max":[2.0,1.2246502936565161E-16,2.0000057220458984],"min":[-2.0,-1.2246502936565161E-16,-2.0000057220458984],"name":"vertices"},{"bufferView":73,"componentType":5126,"count":4,"type":"VEC3","max":[0.0,1.0,0.0],"min":[0.0,1.0,0.0],"name":"normals"},{"bufferView":74,"componentType":5126,"count":4,"type":"VEC4","max":[0.0,0.0,1.0,-1.0],"min":[0.0,0.0,1.0,-1.0],"name":"tangents"},{"bufferView":75,"componentType":5126,"count":4,"type":"VEC2","max":[1.0,0.99999237060546875],"min":[-1.6390113160014153E-06,-4.76837158203125E-07],"name":"uv"},{"bufferView":76,"componentType":5126,"count":4,"type":"VEC2","max":[0.9961543083190918,0.99609375],"min":[0.00390625,0.003850102424621582],"name":"uv2"},{"bufferView":77,"componentType":5125,"count":6,"type":"SCALAR","max":[3.0],"min":[0.0],"name":"indices"}],"asset":{"generator":"Babylon Toolkit (6000.4.3f1)","version":"2.0"},"buffers":[{"uri":"V2.bin","byteLength":2561328}],"bufferViews":[{"buffer":0,"byteLength":17772},{"buffer":0,"byteOffset":17772,"byteLength":17772},{"buffer":0,"byteOffset":35544,"byteLength":23696},{"buffer":0,"byteOffset":59240,"byteLength":11848},{"buffer":0,"byteOffset":71088,"byteLength":11848},{"buffer":0,"byteOffset":82936,"byteLength":25680},{"buffer":0,"byteOffset":108616,"byteLength":61608},{"buffer":0,"byteOffset":170224,"byteLength":61608},{"buffer":0,"byteOffset":231832,"byteLength":82144},{"buffer":0,"byteOffset":313976,"byteLength":41072},{"buffer":0,"byteOffset":355048,"byteLength":41072},{"buffer":0,"byteOffset":396120,"byteLength":95136},{"buffer":0,"byteOffset":491256,"byteLength":9792},{"buffer":0,"byteOffset":501048,"byteLength":9792},{"buffer":0,"byteOffset":510840,"byteLength":13056},{"buffer":0,"byteOffset":523896,"byteLength":6528},{"buffer":0,"byteOffset":530424,"byteLength":6528},{"buffer":0,"byteOffset":536952,"byteLength":8544},{"buffer":0,"byteOffset":545496,"byteLength":912},{"buffer":0,"byteOffset":546408,"byteLength":912},{"buffer":0,"byteOffset":547320,"byteLength":1216},{"buffer":0,"byteOffset":548536,"byteLength":608},{"buffer":0,"byteOffset":549144,"byteLength":608},{"buffer":0,"byteOffset":549752,"byteLength":960},{"buffer":0,"byteOffset":550712,"byteLength":384},{"buffer":0,"byteOffset":551096,"byteLength":384},{"buffer":0,"byteOffset":551480,"byteLength":512},{"buffer":0,"byteOffset":551992,"byteLength":256},{"buffer":0,"byteOffset":552248,"byteLength":256},{"buffer":0,"byteOffset":552504,"byteLength":240},{"buffer":0,"byteOffset":552744,"byteLength":768},{"buffer":0,"byteOffset":553512,"byteLength":768},{"buffer":0,"byteOffset":554280,"byteLength":1024},{"buffer":0,"byteOffset":555304,"byteLength":512},{"buffer":0,"byteOffset":555816,"byteLength":512},{"buffer":0,"byteOffset":556328,"byteLength":480},{"buffer":0,"byteOffset":556808,"byteLength":768},{"buffer":0,"byteOffset":557576,"byteLength":768},{"buffer":0,"byteOffset":558344,"byteLength":1024},{"buffer":0,"byteOffset":559368,"byteLength":512},{"buffer":0,"byteOffset":559880,"byteLength":512},{"buffer":0,"byteOffset":560392,"byteLength":480},{"buffer":0,"byteOffset":560872,"byteLength":2244},{"buffer":0,"byteOffset":563116,"byteLength":2244},{"buffer":0,"byteOffset":565360,"byteLength":2992},{"buffer":0,"byteOffset":568352,"byteLength":1496},{"buffer":0,"byteOffset":569848,"byteLength":1496},{"buffer":0,"byteOffset":571344,"byteLength":1248},{"buffer":0,"byteOffset":572592,"byteLength":48},{"buffer":0,"byteOffset":572640,"byteLength":48},{"buffer":0,"byteOffset":572688,"byteLength":64},{"buffer":0,"byteOffset":572752,"byteLength":32},{"buffer":0,"byteOffset":572784,"byteLength":32},{"buffer":0,"byteOffset":572816,"byteLength":24},{"buffer":0,"byteOffset":572840,"byteLength":5376},{"buffer":0,"byteOffset":578216,"byteLength":5376},{"buffer":0,"byteOffset":583592,"byteLength":7168},{"buffer":0,"byteOffset":590760,"byteLength":3584},{"buffer":0,"byteOffset":594344,"byteLength":3584},{"buffer":0,"byteOffset":597928,"byteLength":2688},{"buffer":0,"byteOffset":600616,"byteLength":301572},{"buffer":0,"byteOffset":902188,"byteLength":301572},{"buffer":0,"byteOffset":1203760,"byteLength":402096},{"buffer":0,"byteOffset":1605856,"byteLength":201048},{"buffer":0,"byteOffset":1806904,"byteLength":201048},{"buffer":0,"byteOffset":2007952,"byteLength":317040},{"buffer":0,"byteOffset":2324992,"byteLength":41940},{"buffer":0,"byteOffset":2366932,"byteLength":41940},{"buffer":0,"byteOffset":2408872,"byteLength":55920},{"buffer":0,"byteOffset":2464792,"byteLength":27960},{"buffer":0,"byteOffset":2492752,"byteLength":27960},{"buffer":0,"byteOffset":2520712,"byteLength":40368},{"buffer":0,"byteOffset":2561080,"byteLength":48},{"buffer":0,"byteOffset":2561128,"byteLength":48},{"buffer":0,"byteOffset":2561176,"byteLength":64},{"buffer":0,"byteOffset":2561240,"byteLength":32},{"buffer":0,"byteOffset":2561272,"byteLength":32},{"buffer":0,"byteOffset":2561304,"byteLength":24}],"images":[{"uri":"assets/furnitureassets/chair/chair_albedo.png","name":"chair_albedo"},{"uri":"assets/furnitureassets/chair/chair_gloss_26e061251a199394e8e8e57d8f984161.png","name":"chair_gloss_26e061251a199394e8e8e57d8f984161"},{"uri":"assets/furnitureassets/chair/chair_ao_26e061251a199394e8e8e57d8f984161_Occ.png","name":"chair_ao_26e061251a199394e8e8e57d8f984161"},{"uri":"assets/furnitureassets/chair/chair_normal.png","name":"chair_normal"},{"uri":"assets/furnitureassets/v2_assets/table/textures/round_wooden_table_01_diff_4k.png","name":"round_wooden_table_01_diff_4k"},{"uri":"assets/imageassets/bookrectextures/a_The-Island-Of-Red-Spider-Lilies.png","name":"a_The-Island-Of-Red-Spider-Lilies"},{"uri":"assets/furnitureassets/3dizartbookspack/textures/Book_m_005fb97e3ffbb6842ac8dd993acccd26.png","name":"Book_m_005fb97e3ffbb6842ac8dd993acccd26"},{"uri":"assets/furnitureassets/3dizartbookspack/textures/Book_m_005fb97e3ffbb6842ac8dd993acccd26_Occ.png","name":"Book_m_005fb97e3ffbb6842ac8dd993acccd26"},{"uri":"assets/furnitureassets/3dizartbookspack/textures/Book_n.png","name":"Book_n"},{"uri":"assets/texturehaven/bricks_4k/bricks_4k_textures/brick_4/brick_4_diff_4k.png","name":"brick_4_diff_4k"},{"uri":"assets/texturehaven/bricks_4k/bricks_4k_textures/brick_4/brick_4_AO_4k_0f5247707726c4840aaf49a71cd9deb6_Occ.png","name":"brick_4_AO_4k_0f5247707726c4840aaf49a71cd9deb6"},{"uri":"assets/texturehaven/bricks_4k/bricks_4k_textures/brick_4/brick_4_nor_4k.png","name":"brick_4_nor_4k"},{"uri":"assets/readingroom/textures/PlasterWhite00.png","name":"PlasterWhite 00"},{"uri":"assets/readingroom/textures/PlasterWhite00S_056e90600b899a34fb93aced4f3ba9a7.png","name":"PlasterWhite 00 S_056e90600b899a34fb93aced4f3ba9a7"},{"uri":"assets/readingroom/textures/PlasterWhite00N.png","name":"PlasterWhite 00 N"},{"uri":"assets/readingroom/textures/plintus_Albedo.png","name":"plintus_Albedo"},{"uri":"assets/readingroom/textures/plintus_Occlusion_a062f1ce703b8164ab77a7d00b9890cc_Occ.png","name":"plintus_Occlusion_a062f1ce703b8164ab77a7d00b9890cc"},{"uri":"assets/readingroom/textures/plintus_NormalMap.png","name":"plintus_NormalMap"},{"uri":"assets/readingroom/textures/window_Albedo.png","name":"window_Albedo"},{"uri":"assets/readingroom/textures/window_NormalMap.png","name":"window_NormalMap"},{"uri":"assets/furnitureassets/bookshelves/shkaff/shkaff.fbm/prop_books_01_mt_Base_Color.png","name":"prop_books_01_mt_Base_Color"},{"uri":"assets/furnitureassets/bookshelves/shkaff/shkaff.fbm/prop_books_01_mt_Normal_OpenGL.png","name":"prop_books_01_mt_Normal_OpenGL"},{"uri":"assets/furnitureassets/bookshelves/shkaff/shkaff.fbm/cp4.png","name":"cp4"},{"uri":"assets/furnitureassets/bookshelves/shkaff/shkaff.fbm/cp7.png","name":"cp7"},{"uri":"assets/furnitureassets/bookshelves/shkaff/shkaff.fbm/cp1.png","name":"cp1"},{"uri":"assets/furnitureassets/bookshelves/shkaff/shkaff.fbm/cp2.png","name":"cp2"},{"uri":"assets/furnitureassets/bookshelves/shkaff/shkaff.fbm/cp5.png","name":"cp5"},{"uri":"assets/furnitureassets/bookshelves/shkaff/shkaff.fbm/cp10.png","name":"cp10"},{"uri":"assets/furnitureassets/bookshelves/shkaff/shkaff.fbm/cp8.png","name":"cp8"},{"uri":"assets/furnitureassets/bookshelves/shkaff/shkaff.fbm/cp6.png","name":"cp6"},{"uri":"assets/furnitureassets/bookshelves/shkaff/shkaff.fbm/cp3.png","name":"cp3"},{"uri":"assets/furnitureassets/bookshelves/shkaff/shkaff.fbm/shkaff_Mat_albedo.png","name":"shkaff_Mat_albedo"},{"uri":"assets/furnitureassets/bookshelves/shkaff/shkaff.fbm/shkaff_Mat_roughness.png","name":"shkaff_Mat_roughness"},{"uri":"assets/furnitureassets/bookshelves/shkaff/shkaff.fbm/shkaff_silver_albedo.png","name":"shkaff_silver_albedo"},{"uri":"assets/furnitureassets/bookshelves/shkaff/shkaff.fbm/shkaff_silver_normal.png","name":"shkaff_silver_normal"},{"uri":"assets/readingroom/textures/parquet2.png","name":"parquet 2"},{"uri":"assets/readingroom/textures/parquet2S_3e66e29dccd11d04c841b6467bc5734c.png","name":"parquet 2 S_3e66e29dccd11d04c841b6467bc5734c"},{"uri":"assets/readingroom/textures/parquet2N.png","name":"parquet 2 N"}],"materials":[{"pbrMetallicRoughness":{"baseColorFactor":[0.8,0.8,0.8,1.0],"baseColorTexture":{"index":0,"texCoord":0},"metallicRoughnessTexture":{"index":1,"texCoord":0}},"normalTexture":{"scale":1.0,"index":3,"texCoord":0},"occlusionTexture":{"index":2,"texCoord":0},"name":"initialShadingGroup_lowpoly_meshMat","extensions":{"KHR_materials_specular":{"specularFactor":1.0},"KHR_materials_clearcoat":{"clearcoatRoughnessFactor":1.0}},"extras":{"metadata":{"alphaMode":2,"alphaFade":false,"isSpecular":false,"useWireframe":false,"depthPrepass":false,"realtimeFilteringMode":0,"realtimeFilteringQuality":8,"enableGlossyReflections":true,"freezeMaterial":false,"disableLighting":false,"detailBlendLevel":0.75,"detailBumpLevel":1.0,"detailRoughLevel":0.5,"lightmapLevel":0.5,"backFaceCulling":true,"directIntensity":1.0,"specularIntensity":1.0,"specularIntensityScale":1.0,"reflectionProbePower":1.0,"emissiveIntensity":1.0,"environmentIntensity":1.0,"useExpandedLightmapTexture":false,"useEmissiveAsIllumination":false,"useLightmapAsShadowmap":false,"useAlphaFromAlbedoTexture":false,"hasAlbedoTextureChannel":false,"maxSimultaneousLights":4,"clearCoatIntensity":0.0,"indexOfRefraction":1.5,"ambientColorFactor":[1.0,1.0,1.0,1.0],"reflectionColorFactor":[1.0,1.0,1.0,1.0],"customColors":{"Color":[0.8,0.8,0.8,1.0]}}}},{"pbrMetallicRoughness":{"baseColorTexture":{"index":4,"texCoord":0},"metallicFactor":0.0,"roughnessFactor":0.5},"name":"round_wooden_table_01","extensions":{"KHR_materials_specular":{"specularFactor":1.0},"KHR_materials_clearcoat":{"clearcoatRoughnessFactor":1.0}},"extras":{"metadata":{"alphaMode":2,"alphaFade":false,"isSpecular":false,"useWireframe":false,"depthPrepass":false,"realtimeFilteringMode":0,"realtimeFilteringQuality":8,"enableGlossyReflections":true,"freezeMaterial":false,"disableLighting":false,"detailBlendLevel":0.75,"detailBumpLevel":1.0,"detailRoughLevel":0.5,"lightmapLevel":0.5,"backFaceCulling":true,"directIntensity":1.0,"specularIntensity":1.0,"specularIntensityScale":1.0,"reflectionProbePower":1.0,"emissiveIntensity":1.0,"environmentIntensity":1.0,"useExpandedLightmapTexture":false,"useEmissiveAsIllumination":false,"useLightmapAsShadowmap":false,"useAlphaFromAlbedoTexture":false,"hasAlbedoTextureChannel":false,"maxSimultaneousLights":4,"clearCoatIntensity":0.0,"indexOfRefraction":1.5,"ambientColorFactor":[1.0,1.0,1.0,1.0],"reflectionColorFactor":[1.0,1.0,1.0,1.0],"customColors":{"Color":[1.0,1.0,1.0,1.0]}}}},{"pbrMetallicRoughness":{"baseColorTexture":{"index":5,"texCoord":0},"metallicRoughnessTexture":{"index":6,"texCoord":0}},"normalTexture":{"scale":1.0,"index":8,"texCoord":0},"occlusionTexture":{"index":7,"texCoord":0},"name":"Template","extensions":{"KHR_materials_specular":{"specularFactor":1.0},"KHR_materials_clearcoat":{"clearcoatRoughnessFactor":1.0}},"extras":{"metadata":{"alphaMode":2,"alphaFade":false,"isSpecular":false,"useWireframe":false,"depthPrepass":false,"realtimeFilteringMode":0,"realtimeFilteringQuality":8,"enableGlossyReflections":true,"freezeMaterial":false,"disableLighting":false,"detailBlendLevel":0.75,"detailBumpLevel":1.0,"detailRoughLevel":0.5,"lightmapLevel":0.5,"backFaceCulling":true,"directIntensity":1.0,"specularIntensity":1.0,"specularIntensityScale":1.0,"reflectionProbePower":1.0,"emissiveIntensity":1.0,"environmentIntensity":1.0,"useExpandedLightmapTexture":false,"useEmissiveAsIllumination":false,"useLightmapAsShadowmap":false,"useAlphaFromAlbedoTexture":false,"hasAlbedoTextureChannel":false,"maxSimultaneousLights":4,"clearCoatIntensity":0.0,"indexOfRefraction":1.5,"ambientColorFactor":[1.0,1.0,1.0,1.0],"reflectionColorFactor":[1.0,1.0,1.0,1.0],"customColors":{"Color":[1.0,1.0,1.0,1.0]}}}},{"pbrMetallicRoughness":{"baseColorTexture":{"index":9,"texCoord":0,"extensions":{"KHR_texture_transform":{"scale":[2.5,2.5]}}},"metallicFactor":0.0,"roughnessFactor":0.0},"normalTexture":{"scale":1.0,"index":11,"texCoord":0,"extensions":{"KHR_texture_transform":{"scale":[2.5,2.5]}}},"occlusionTexture":{"index":10,"texCoord":0,"extensions":{"KHR_texture_transform":{"scale":[2.5,2.5]}}},"name":"brick_4","extensions":{"KHR_materials_specular":{"specularFactor":1.0},"KHR_materials_clearcoat":{"clearcoatRoughnessFactor":1.0}},"extras":{"metadata":{"alphaMode":2,"alphaFade":false,"isSpecular":false,"useWireframe":false,"depthPrepass":false,"realtimeFilteringMode":0,"realtimeFilteringQuality":8,"enableGlossyReflections":true,"freezeMaterial":false,"disableLighting":false,"detailBlendLevel":0.75,"detailBumpLevel":1.0,"detailRoughLevel":0.5,"lightmapLevel":0.5,"backFaceCulling":true,"parallaxBias":0.02,"parallaxOcclusion":false,"directIntensity":1.0,"specularIntensity":1.0,"specularIntensityScale":1.0,"reflectionProbePower":1.0,"emissiveIntensity":1.0,"environmentIntensity":1.0,"useExpandedLightmapTexture":false,"useEmissiveAsIllumination":false,"useLightmapAsShadowmap":false,"useAlphaFromAlbedoTexture":false,"hasAlbedoTextureChannel":false,"maxSimultaneousLights":4,"clearCoatIntensity":0.0,"indexOfRefraction":1.5,"ambientColorFactor":[1.0,1.0,1.0,1.0],"reflectionColorFactor":[1.0,1.0,1.0,1.0],"customColors":{"Color":[1.0,1.0,1.0,1.0]}}}},{"pbrMetallicRoughness":{"baseColorFactor":[0.7529423,0.7529423,0.7529423,1.0],"baseColorTexture":{"index":12,"texCoord":0},"metallicRoughnessTexture":{"index":13,"texCoord":0}},"normalTexture":{"scale":1.0,"index":14,"texCoord":0},"name":"PlasterWhite 00","extensions":{"KHR_materials_specular":{"specularFactor":1.0},"KHR_materials_clearcoat":{"clearcoatRoughnessFactor":1.0}},"extras":{"metadata":{"alphaMode":2,"alphaFade":false,"isSpecular":false,"useWireframe":false,"depthPrepass":false,"realtimeFilteringMode":0,"realtimeFilteringQuality":8,"enableGlossyReflections":true,"freezeMaterial":false,"disableLighting":false,"detailBlendLevel":0.75,"detailBumpLevel":1.0,"detailRoughLevel":0.5,"lightmapLevel":0.5,"backFaceCulling":true,"directIntensity":1.0,"specularIntensity":1.0,"specularIntensityScale":1.0,"reflectionProbePower":1.0,"emissiveIntensity":1.0,"environmentIntensity":1.0,"useExpandedLightmapTexture":false,"useEmissiveAsIllumination":false,"useLightmapAsShadowmap":false,"useAlphaFromAlbedoTexture":false,"hasAlbedoTextureChannel":false,"maxSimultaneousLights":4,"clearCoatIntensity":0.0,"indexOfRefraction":1.5,"ambientColorFactor":[1.0,1.0,1.0,1.0],"reflectionColorFactor":[1.0,1.0,1.0,1.0],"customColors":{"Color":[0.7529423,0.7529423,0.7529423,1.0]}}}},{"pbrMetallicRoughness":{"baseColorFactor":[0.0,0.0,0.0,1.0],"metallicFactor":0.0,"roughnessFactor":0.5},"name":"BLACK 1","extensions":{"KHR_materials_specular":{"specularFactor":1.0}},"extras":{"metadata":{"alphaMode":2,"alphaFade":false,"isSpecular":false,"useWireframe":false,"depthPrepass":false,"realtimeFilteringMode":0,"realtimeFilteringQuality":8,"enableGlossyReflections":true,"freezeMaterial":false,"disableLighting":false,"detailBlendLevel":0.75,"detailBumpLevel":1.0,"detailRoughLevel":0.5,"lightmapLevel":0.5,"backFaceCulling":true,"directIntensity":1.0,"specularIntensity":1.0,"specularIntensityScale":1.0,"reflectionProbePower":1.0,"emissiveIntensity":1.0,"environmentIntensity":1.0,"useExpandedLightmapTexture":false,"useEmissiveAsIllumination":false,"useLightmapAsShadowmap":false,"useAlphaFromAlbedoTexture":false,"hasAlbedoTextureChannel":false,"maxSimultaneousLights":4,"clearCoatIntensity":0.0,"indexOfRefraction":1.5,"ambientColorFactor":[1.0,1.0,1.0,1.0],"reflectionColorFactor":[1.0,1.0,1.0,1.0],"customColors":{"Color":[0.0,0.0,0.0,1.0]}}}},{"pbrMetallicRoughness":{"baseColorFactor":[0.7529423,0.7529423,0.7529423,1.0],"baseColorTexture":{"index":15,"texCoord":0},"metallicFactor":0.0,"roughnessFactor":0.0},"normalTexture":{"scale":1.0,"index":17,"texCoord":0},"occlusionTexture":{"index":16,"texCoord":0},"name":"wood elements","extensions":{"KHR_materials_specular":{"specularFactor":1.0},"KHR_materials_clearcoat":{"clearcoatRoughnessFactor":1.0}},"extras":{"metadata":{"alphaMode":2,"alphaFade":false,"isSpecular":false,"useWireframe":false,"depthPrepass":false,"realtimeFilteringMode":0,"realtimeFilteringQuality":8,"enableGlossyReflections":true,"freezeMaterial":false,"disableLighting":false,"detailBlendLevel":0.75,"detailBumpLevel":1.0,"detailRoughLevel":0.5,"lightmapLevel":0.5,"backFaceCulling":true,"directIntensity":1.0,"specularIntensity":1.0,"specularIntensityScale":1.0,"reflectionProbePower":1.0,"emissiveIntensity":1.0,"environmentIntensity":1.0,"useExpandedLightmapTexture":false,"useEmissiveAsIllumination":false,"useLightmapAsShadowmap":false,"useAlphaFromAlbedoTexture":false,"hasAlbedoTextureChannel":false,"maxSimultaneousLights":4,"clearCoatIntensity":0.0,"indexOfRefraction":1.5,"ambientColorFactor":[1.0,1.0,1.0,1.0],"reflectionColorFactor":[1.0,1.0,1.0,1.0],"customColors":{"Color":[0.7529423,0.7529423,0.7529423,1.0]}}}},{"pbrMetallicRoughness":{"baseColorFactor":[0.7529423,0.7529423,0.7529423,1.0],"baseColorTexture":{"index":18,"texCoord":0},"metallicFactor":0.0,"roughnessFactor":0.037000000476837158},"normalTexture":{"scale":1.0,"index":19,"texCoord":0},"name":"wood window_","extensions":{"KHR_materials_specular":{"specularFactor":1.0},"KHR_materials_clearcoat":{"clearcoatRoughnessFactor":1.0}},"extras":{"metadata":{"alphaMode":2,"alphaFade":false,"isSpecular":false,"useWireframe":false,"depthPrepass":false,"realtimeFilteringMode":0,"realtimeFilteringQuality":8,"enableGlossyReflections":true,"freezeMaterial":false,"disableLighting":false,"detailBlendLevel":0.75,"detailBumpLevel":1.0,"detailRoughLevel":0.5,"lightmapLevel":0.5,"backFaceCulling":true,"directIntensity":1.0,"specularIntensity":1.0,"specularIntensityScale":1.0,"reflectionProbePower":1.0,"emissiveIntensity":1.0,"environmentIntensity":1.0,"useExpandedLightmapTexture":false,"useEmissiveAsIllumination":false,"useLightmapAsShadowmap":false,"useAlphaFromAlbedoTexture":false,"hasAlbedoTextureChannel":false,"maxSimultaneousLights":4,"clearCoatIntensity":0.0,"indexOfRefraction":1.5,"ambientColorFactor":[1.0,1.0,1.0,1.0],"reflectionColorFactor":[1.0,1.0,1.0,1.0],"customColors":{"Color":[0.7529423,0.7529423,0.7529423,1.0]}}}},{"pbrMetallicRoughness":{"metallicFactor":0.0,"roughnessFactor":0.5},"name":"Universal Render Pipeline/Lit","extensions":{"KHR_materials_specular":{"specularFactor":1.0},"KHR_materials_clearcoat":{"clearcoatRoughnessFactor":1.0}},"extras":{"metadata":{"alphaMode":2,"alphaFade":false,"isSpecular":false,"useWireframe":false,"depthPrepass":false,"realtimeFilteringMode":0,"realtimeFilteringQuality":8,"enableGlossyReflections":true,"freezeMaterial":false,"disableLighting":false,"detailBlendLevel":0.75,"detailBumpLevel":1.0,"detailRoughLevel":0.5,"lightmapLevel":0.5,"backFaceCulling":true,"directIntensity":1.0,"specularIntensity":1.0,"specularIntensityScale":1.0,"reflectionProbePower":1.0,"emissiveIntensity":1.0,"environmentIntensity":1.0,"useExpandedLightmapTexture":false,"useEmissiveAsIllumination":false,"useLightmapAsShadowmap":false,"useAlphaFromAlbedoTexture":false,"hasAlbedoTextureChannel":false,"maxSimultaneousLights":4,"clearCoatIntensity":0.0,"indexOfRefraction":1.5,"ambientColorFactor":[1.0,1.0,1.0,1.0],"reflectionColorFactor":[1.0,1.0,1.0,1.0],"customColors":{"Color":[1.0,1.0,1.0,1.0]}}}},{"pbrMetallicRoughness":{"baseColorTexture":{"index":20,"texCoord":0,"extensions":{"KHR_texture_transform":{"offset":[0.0,1.0]}}},"metallicFactor":0.0,"roughnessFactor":0.58589404821395874},"normalTexture":{"scale":1.0,"index":21,"texCoord":0,"extensions":{"KHR_texture_transform":{"offset":[0.0,1.0]}}},"name":"BOOKS","extensions":{"KHR_materials_specular":{"specularFactor":1.0},"KHR_materials_clearcoat":{"clearcoatRoughnessFactor":1.0}},"extras":{"metadata":{"alphaMode":2,"alphaFade":false,"isSpecular":false,"useWireframe":false,"depthPrepass":false,"realtimeFilteringMode":0,"realtimeFilteringQuality":8,"enableGlossyReflections":true,"freezeMaterial":false,"disableLighting":false,"detailBlendLevel":0.75,"detailBumpLevel":1.0,"detailRoughLevel":0.5,"lightmapLevel":0.5,"backFaceCulling":true,"directIntensity":1.0,"specularIntensity":1.0,"specularIntensityScale":1.0,"reflectionProbePower":1.0,"emissiveIntensity":1.0,"environmentIntensity":1.0,"useExpandedLightmapTexture":false,"useEmissiveAsIllumination":false,"useLightmapAsShadowmap":false,"useAlphaFromAlbedoTexture":false,"hasAlbedoTextureChannel":false,"maxSimultaneousLights":4,"clearCoatIntensity":0.0,"indexOfRefraction":1.5,"ambientColorFactor":[1.0,1.0,1.0,1.0],"reflectionColorFactor":[1.0,1.0,1.0,1.0],"customColors":{"Color":[1.0,1.0,1.0,1.0]}}}},{"pbrMetallicRoughness":{"baseColorTexture":{"index":22,"texCoord":0,"extensions":{"KHR_texture_transform":{"offset":[0.0,1.0]}}},"metallicFactor":0.0,"roughnessFactor":0.43431460857391357},"name":"cp5","extensions":{"KHR_materials_specular":{"specularFactor":1.0},"KHR_materials_clearcoat":{"clearcoatRoughnessFactor":1.0}},"extras":{"metadata":{"alphaMode":2,"alphaFade":false,"isSpecular":false,"useWireframe":false,"depthPrepass":false,"realtimeFilteringMode":0,"realtimeFilteringQuality":8,"enableGlossyReflections":true,"freezeMaterial":false,"disableLighting":false,"detailBlendLevel":0.75,"detailBumpLevel":1.0,"detailRoughLevel":0.5,"lightmapLevel":0.5,"backFaceCulling":true,"directIntensity":1.0,"specularIntensity":1.0,"specularIntensityScale":1.0,"reflectionProbePower":1.0,"emissiveIntensity":1.0,"environmentIntensity":1.0,"useExpandedLightmapTexture":false,"useEmissiveAsIllumination":false,"useLightmapAsShadowmap":false,"useAlphaFromAlbedoTexture":false,"hasAlbedoTextureChannel":false,"maxSimultaneousLights":4,"clearCoatIntensity":0.0,"indexOfRefraction":1.5,"ambientColorFactor":[1.0,1.0,1.0,1.0],"reflectionColorFactor":[1.0,1.0,1.0,1.0],"customColors":{"Color":[1.0,1.0,1.0,1.0]}}}},{"pbrMetallicRoughness":{"baseColorFactor":[0.214041144,0.214041144,0.214041144,1.0],"metallicFactor":0.0,"roughnessFactor":0.5},"name":"Lit","extensions":{"KHR_materials_specular":{"specularFactor":1.0},"KHR_materials_clearcoat":{"clearcoatRoughnessFactor":1.0}},"extras":{"metadata":{"alphaMode":2,"alphaFade":false,"isSpecular":false,"useWireframe":false,"depthPrepass":false,"realtimeFilteringMode":0,"realtimeFilteringQuality":8,"enableGlossyReflections":true,"freezeMaterial":false,"disableLighting":false,"detailBlendLevel":0.75,"detailBumpLevel":1.0,"detailRoughLevel":0.5,"lightmapLevel":0.5,"backFaceCulling":true,"directIntensity":1.0,"specularIntensity":1.0,"specularIntensityScale":1.0,"reflectionProbePower":1.0,"emissiveIntensity":1.0,"environmentIntensity":1.0,"useExpandedLightmapTexture":false,"useEmissiveAsIllumination":false,"useLightmapAsShadowmap":false,"useAlphaFromAlbedoTexture":false,"hasAlbedoTextureChannel":false,"maxSimultaneousLights":4,"clearCoatIntensity":0.0,"indexOfRefraction":1.5,"ambientColorFactor":[1.0,1.0,1.0,1.0],"reflectionColorFactor":[1.0,1.0,1.0,1.0],"customColors":{"Color":[0.214041144,0.214041144,0.214041144,1.0]}}}},{"pbrMetallicRoughness":{"baseColorTexture":{"index":23,"texCoord":0,"extensions":{"KHR_texture_transform":{"offset":[0.0,1.0]}}},"metallicFactor":0.0,"roughnessFactor":0.43431460857391357},"name":"cp8","extensions":{"KHR_materials_specular":{"specularFactor":1.0},"KHR_materials_clearcoat":{"clearcoatRoughnessFactor":1.0}},"extras":{"metadata":{"alphaMode":2,"alphaFade":false,"isSpecular":false,"useWireframe":false,"depthPrepass":false,"realtimeFilteringMode":0,"realtimeFilteringQuality":8,"enableGlossyReflections":true,"freezeMaterial":false,"disableLighting":false,"detailBlendLevel":0.75,"detailBumpLevel":1.0,"detailRoughLevel":0.5,"lightmapLevel":0.5,"backFaceCulling":true,"directIntensity":1.0,"specularIntensity":1.0,"specularIntensityScale":1.0,"reflectionProbePower":1.0,"emissiveIntensity":1.0,"environmentIntensity":1.0,"useExpandedLightmapTexture":false,"useEmissiveAsIllumination":false,"useLightmapAsShadowmap":false,"useAlphaFromAlbedoTexture":false,"hasAlbedoTextureChannel":false,"maxSimultaneousLights":4,"clearCoatIntensity":0.0,"indexOfRefraction":1.5,"ambientColorFactor":[1.0,1.0,1.0,1.0],"reflectionColorFactor":[1.0,1.0,1.0,1.0],"customColors":{"Color":[1.0,1.0,1.0,1.0]}}}},{"pbrMetallicRoughness":{"baseColorTexture":{"index":24,"texCoord":0,"extensions":{"KHR_texture_transform":{"offset":[0.0,1.0]}}},"metallicFactor":0.0,"roughnessFactor":0.43431460857391357},"name":"cp1","extensions":{"KHR_materials_specular":{"specularFactor":1.0},"KHR_materials_clearcoat":{"clearcoatRoughnessFactor":1.0}},"extras":{"metadata":{"alphaMode":2,"alphaFade":false,"isSpecular":false,"useWireframe":false,"depthPrepass":false,"realtimeFilteringMode":0,"realtimeFilteringQuality":8,"enableGlossyReflections":true,"freezeMaterial":false,"disableLighting":false,"detailBlendLevel":0.75,"detailBumpLevel":1.0,"detailRoughLevel":0.5,"lightmapLevel":0.5,"backFaceCulling":true,"directIntensity":1.0,"specularIntensity":1.0,"specularIntensityScale":1.0,"reflectionProbePower":1.0,"emissiveIntensity":1.0,"environmentIntensity":1.0,"useExpandedLightmapTexture":false,"useEmissiveAsIllumination":false,"useLightmapAsShadowmap":false,"useAlphaFromAlbedoTexture":false,"hasAlbedoTextureChannel":false,"maxSimultaneousLights":4,"clearCoatIntensity":0.0,"indexOfRefraction":1.5,"ambientColorFactor":[1.0,1.0,1.0,1.0],"reflectionColorFactor":[1.0,1.0,1.0,1.0],"customColors":{"Color":[1.0,1.0,1.0,1.0]}}}},{"pbrMetallicRoughness":{"baseColorTexture":{"index":25,"texCoord":0,"extensions":{"KHR_texture_transform":{"offset":[0.0,1.0]}}},"metallicFactor":0.0,"roughnessFactor":0.43431460857391357},"name":"cp3","extensions":{"KHR_materials_specular":{"specularFactor":1.0},"KHR_materials_clearcoat":{"clearcoatRoughnessFactor":1.0}},"extras":{"metadata":{"alphaMode":2,"alphaFade":false,"isSpecular":false,"useWireframe":false,"depthPrepass":false,"realtimeFilteringMode":0,"realtimeFilteringQuality":8,"enableGlossyReflections":true,"freezeMaterial":false,"disableLighting":false,"detailBlendLevel":0.75,"detailBumpLevel":1.0,"detailRoughLevel":0.5,"lightmapLevel":0.5,"backFaceCulling":true,"directIntensity":1.0,"specularIntensity":1.0,"specularIntensityScale":1.0,"reflectionProbePower":1.0,"emissiveIntensity":1.0,"environmentIntensity":1.0,"useExpandedLightmapTexture":false,"useEmissiveAsIllumination":false,"useLightmapAsShadowmap":false,"useAlphaFromAlbedoTexture":false,"hasAlbedoTextureChannel":false,"maxSimultaneousLights":4,"clearCoatIntensity":0.0,"indexOfRefraction":1.5,"ambientColorFactor":[1.0,1.0,1.0,1.0],"reflectionColorFactor":[1.0,1.0,1.0,1.0],"customColors":{"Color":[1.0,1.0,1.0,1.0]}}}},{"pbrMetallicRoughness":{"baseColorTexture":{"index":26,"texCoord":0,"extensions":{"KHR_texture_transform":{"offset":[0.0,1.0]}}},"metallicFactor":0.0,"roughnessFactor":0.43431460857391357},"name":"cp6","extensions":{"KHR_materials_specular":{"specularFactor":1.0},"KHR_materials_clearcoat":{"clearcoatRoughnessFactor":1.0}},"extras":{"metadata":{"alphaMode":2,"alphaFade":false,"isSpecular":false,"useWireframe":false,"depthPrepass":false,"realtimeFilteringMode":0,"realtimeFilteringQuality":8,"enableGlossyReflections":true,"freezeMaterial":false,"disableLighting":false,"detailBlendLevel":0.75,"detailBumpLevel":1.0,"detailRoughLevel":0.5,"lightmapLevel":0.5,"backFaceCulling":true,"directIntensity":1.0,"specularIntensity":1.0,"specularIntensityScale":1.0,"reflectionProbePower":1.0,"emissiveIntensity":1.0,"environmentIntensity":1.0,"useExpandedLightmapTexture":false,"useEmissiveAsIllumination":false,"useLightmapAsShadowmap":false,"useAlphaFromAlbedoTexture":false,"hasAlbedoTextureChannel":false,"maxSimultaneousLights":4,"clearCoatIntensity":0.0,"indexOfRefraction":1.5,"ambientColorFactor":[1.0,1.0,1.0,1.0],"reflectionColorFactor":[1.0,1.0,1.0,1.0],"customColors":{"Color":[1.0,1.0,1.0,1.0]}}}},{"pbrMetallicRoughness":{"baseColorTexture":{"index":27,"texCoord":0,"extensions":{"KHR_texture_transform":{"offset":[0.0,1.0]}}},"metallicFactor":0.0,"roughnessFactor":0.43431460857391357},"name":"cp2","extensions":{"KHR_materials_specular":{"specularFactor":1.0},"KHR_materials_clearcoat":{"clearcoatRoughnessFactor":1.0}},"extras":{"metadata":{"alphaMode":2,"alphaFade":false,"isSpecular":false,"useWireframe":false,"depthPrepass":false,"realtimeFilteringMode":0,"realtimeFilteringQuality":8,"enableGlossyReflections":true,"freezeMaterial":false,"disableLighting":false,"detailBlendLevel":0.75,"detailBumpLevel":1.0,"detailRoughLevel":0.5,"lightmapLevel":0.5,"backFaceCulling":true,"directIntensity":1.0,"specularIntensity":1.0,"specularIntensityScale":1.0,"reflectionProbePower":1.0,"emissiveIntensity":1.0,"environmentIntensity":1.0,"useExpandedLightmapTexture":false,"useEmissiveAsIllumination":false,"useLightmapAsShadowmap":false,"useAlphaFromAlbedoTexture":false,"hasAlbedoTextureChannel":false,"maxSimultaneousLights":4,"clearCoatIntensity":0.0,"indexOfRefraction":1.5,"ambientColorFactor":[1.0,1.0,1.0,1.0],"reflectionColorFactor":[1.0,1.0,1.0,1.0],"customColors":{"Color":[1.0,1.0,1.0,1.0]}}}},{"pbrMetallicRoughness":{"baseColorTexture":{"index":28,"texCoord":0,"extensions":{"KHR_texture_transform":{"offset":[0.0,1.0]}}},"metallicFactor":0.0,"roughnessFactor":0.43431460857391357},"name":"cp9","extensions":{"KHR_materials_specular":{"specularFactor":1.0},"KHR_materials_clearcoat":{"clearcoatRoughnessFactor":1.0}},"extras":{"metadata":{"alphaMode":2,"alphaFade":false,"isSpecular":false,"useWireframe":false,"depthPrepass":false,"realtimeFilteringMode":0,"realtimeFilteringQuality":8,"enableGlossyReflections":true,"freezeMaterial":false,"disableLighting":false,"detailBlendLevel":0.75,"detailBumpLevel":1.0,"detailRoughLevel":0.5,"lightmapLevel":0.5,"backFaceCulling":true,"directIntensity":1.0,"specularIntensity":1.0,"specularIntensityScale":1.0,"reflectionProbePower":1.0,"emissiveIntensity":1.0,"environmentIntensity":1.0,"useExpandedLightmapTexture":false,"useEmissiveAsIllumination":false,"useLightmapAsShadowmap":false,"useAlphaFromAlbedoTexture":false,"hasAlbedoTextureChannel":false,"maxSimultaneousLights":4,"clearCoatIntensity":0.0,"indexOfRefraction":1.5,"ambientColorFactor":[1.0,1.0,1.0,1.0],"reflectionColorFactor":[1.0,1.0,1.0,1.0],"customColors":{"Color":[1.0,1.0,1.0,1.0]}}}},{"pbrMetallicRoughness":{"baseColorTexture":{"index":29,"texCoord":0,"extensions":{"KHR_texture_transform":{"offset":[0.0,1.0]}}},"metallicFactor":0.0,"roughnessFactor":0.43431460857391357},"name":"cp7","extensions":{"KHR_materials_specular":{"specularFactor":1.0},"KHR_materials_clearcoat":{"clearcoatRoughnessFactor":1.0}},"extras":{"metadata":{"alphaMode":2,"alphaFade":false,"isSpecular":false,"useWireframe":false,"depthPrepass":false,"realtimeFilteringMode":0,"realtimeFilteringQuality":8,"enableGlossyReflections":true,"freezeMaterial":false,"disableLighting":false,"detailBlendLevel":0.75,"detailBumpLevel":1.0,"detailRoughLevel":0.5,"lightmapLevel":0.5,"backFaceCulling":true,"directIntensity":1.0,"specularIntensity":1.0,"specularIntensityScale":1.0,"reflectionProbePower":1.0,"emissiveIntensity":1.0,"environmentIntensity":1.0,"useExpandedLightmapTexture":false,"useEmissiveAsIllumination":false,"useLightmapAsShadowmap":false,"useAlphaFromAlbedoTexture":false,"hasAlbedoTextureChannel":false,"maxSimultaneousLights":4,"clearCoatIntensity":0.0,"indexOfRefraction":1.5,"ambientColorFactor":[1.0,1.0,1.0,1.0],"reflectionColorFactor":[1.0,1.0,1.0,1.0],"customColors":{"Color":[1.0,1.0,1.0,1.0]}}}},{"pbrMetallicRoughness":{"baseColorTexture":{"index":30,"texCoord":0,"extensions":{"KHR_texture_transform":{"offset":[0.0,1.0]}}},"metallicFactor":0.0,"roughnessFactor":0.43431460857391357},"name":"cp4","extensions":{"KHR_materials_specular":{"specularFactor":1.0},"KHR_materials_clearcoat":{"clearcoatRoughnessFactor":1.0}},"extras":{"metadata":{"alphaMode":2,"alphaFade":false,"isSpecular":false,"useWireframe":false,"depthPrepass":false,"realtimeFilteringMode":0,"realtimeFilteringQuality":8,"enableGlossyReflections":true,"freezeMaterial":false,"disableLighting":false,"detailBlendLevel":0.75,"detailBumpLevel":1.0,"detailRoughLevel":0.5,"lightmapLevel":0.5,"backFaceCulling":true,"directIntensity":1.0,"specularIntensity":1.0,"specularIntensityScale":1.0,"reflectionProbePower":1.0,"emissiveIntensity":1.0,"environmentIntensity":1.0,"useExpandedLightmapTexture":false,"useEmissiveAsIllumination":false,"useLightmapAsShadowmap":false,"useAlphaFromAlbedoTexture":false,"hasAlbedoTextureChannel":false,"maxSimultaneousLights":4,"clearCoatIntensity":0.0,"indexOfRefraction":1.5,"ambientColorFactor":[1.0,1.0,1.0,1.0],"reflectionColorFactor":[1.0,1.0,1.0,1.0],"customColors":{"Color":[1.0,1.0,1.0,1.0]}}}},{"pbrMetallicRoughness":{"baseColorTexture":{"index":31,"texCoord":0,"extensions":{"KHR_texture_transform":{"offset":[0.0,1.0]}}},"metallicFactor":0.0,"roughnessFactor":0.0},"normalTexture":{"scale":0.14000000059604645,"index":32,"texCoord":0,"extensions":{"KHR_texture_transform":{"offset":[0.0,1.0]}}},"name":"SHKAFF MAT","extensions":{"KHR_materials_specular":{"specularFactor":1.0},"KHR_materials_clearcoat":{"clearcoatRoughnessFactor":1.0}},"extras":{"metadata":{"alphaMode":2,"alphaFade":false,"isSpecular":false,"useWireframe":false,"depthPrepass":false,"realtimeFilteringMode":0,"realtimeFilteringQuality":8,"enableGlossyReflections":true,"freezeMaterial":false,"disableLighting":false,"detailBlendLevel":0.75,"detailBumpLevel":1.0,"detailRoughLevel":0.5,"lightmapLevel":0.5,"backFaceCulling":true,"directIntensity":1.0,"specularIntensity":1.0,"specularIntensityScale":1.0,"reflectionProbePower":1.0,"emissiveIntensity":1.0,"environmentIntensity":1.0,"useExpandedLightmapTexture":false,"useEmissiveAsIllumination":false,"useLightmapAsShadowmap":false,"useAlphaFromAlbedoTexture":false,"hasAlbedoTextureChannel":false,"maxSimultaneousLights":4,"clearCoatIntensity":0.0,"indexOfRefraction":1.5,"ambientColorFactor":[1.0,1.0,1.0,1.0],"reflectionColorFactor":[1.0,1.0,1.0,1.0],"customColors":{"Color":[1.0,1.0,1.0,1.0]}}}},{"pbrMetallicRoughness":{"baseColorTexture":{"index":33,"texCoord":0,"extensions":{"KHR_texture_transform":{"offset":[0.0,1.0]}}},"metallicFactor":0.0,"roughnessFactor":0.25357365608215332},"normalTexture":{"scale":1.0,"index":34,"texCoord":0,"extensions":{"KHR_texture_transform":{"offset":[0.0,1.0]}}},"name":"SHKAF ALBEDO","extensions":{"KHR_materials_specular":{"specularFactor":1.0},"KHR_materials_clearcoat":{"clearcoatRoughnessFactor":1.0}},"extras":{"metadata":{"alphaMode":2,"alphaFade":false,"isSpecular":false,"useWireframe":false,"depthPrepass":false,"realtimeFilteringMode":0,"realtimeFilteringQuality":8,"enableGlossyReflections":true,"freezeMaterial":false,"disableLighting":false,"detailBlendLevel":0.75,"detailBumpLevel":1.0,"detailRoughLevel":0.5,"lightmapLevel":0.5,"backFaceCulling":true,"directIntensity":1.0,"specularIntensity":1.0,"specularIntensityScale":1.0,"reflectionProbePower":1.0,"emissiveIntensity":1.0,"environmentIntensity":1.0,"useExpandedLightmapTexture":false,"useEmissiveAsIllumination":false,"useLightmapAsShadowmap":false,"useAlphaFromAlbedoTexture":false,"hasAlbedoTextureChannel":false,"maxSimultaneousLights":4,"clearCoatIntensity":0.0,"indexOfRefraction":1.5,"ambientColorFactor":[1.0,1.0,1.0,1.0],"reflectionColorFactor":[1.0,1.0,1.0,1.0],"customColors":{"Color":[1.0,1.0,1.0,1.0]}}}},{"pbrMetallicRoughness":{"baseColorFactor":[0.7529423,0.7529423,0.7529423,1.0],"baseColorTexture":{"index":35,"texCoord":0},"metallicRoughnessTexture":{"index":36,"texCoord":0}},"normalTexture":{"scale":1.0,"index":37,"texCoord":0},"name":"parquet 2","extensions":{"KHR_materials_specular":{"specularFactor":1.0},"KHR_materials_clearcoat":{"clearcoatRoughnessFactor":1.0}},"extras":{"metadata":{"alphaMode":2,"alphaFade":false,"isSpecular":false,"useWireframe":false,"depthPrepass":false,"realtimeFilteringMode":0,"realtimeFilteringQuality":8,"enableGlossyReflections":true,"freezeMaterial":false,"disableLighting":false,"detailBlendLevel":0.75,"detailBumpLevel":1.0,"detailRoughLevel":0.5,"lightmapLevel":0.5,"backFaceCulling":true,"directIntensity":1.0,"specularIntensity":1.0,"specularIntensityScale":1.0,"reflectionProbePower":1.0,"emissiveIntensity":1.0,"environmentIntensity":1.0,"useExpandedLightmapTexture":false,"useEmissiveAsIllumination":false,"useLightmapAsShadowmap":false,"useAlphaFromAlbedoTexture":false,"hasAlbedoTextureChannel":false,"maxSimultaneousLights":4,"clearCoatIntensity":0.0,"indexOfRefraction":1.5,"ambientColorFactor":[1.0,1.0,1.0,1.0],"reflectionColorFactor":[1.0,1.0,1.0,1.0],"customColors":{"Color":[0.7529423,0.7529423,0.7529423,1.0]}}}}],"meshes":[{"primitives":[{"attributes":{"POSITION":0,"NORMAL":1,"TANGENT":2,"TEXCOORD_0":3,"TEXCOORD_1":4},"indices":5,"material":0}],"name":"initialShadingGroup_lowpoly_mesh"},{"primitives":[{"attributes":{"POSITION":6,"NORMAL":7,"TANGENT":8,"TEXCOORD_0":9,"TEXCOORD_1":10},"indices":11,"material":1}],"name":"round_wooden_table_01"},{"primitives":[{"attributes":{"POSITION":12,"NORMAL":13,"TANGENT":14,"TEXCOORD_0":15,"TEXCOORD_1":16},"indices":17,"material":1}],"name":"round_wooden_table_01_bolts"},{"primitives":[{"attributes":{"POSITION":18,"NORMAL":19,"TANGENT":20,"TEXCOORD_0":21,"TEXCOORD_1":22},"indices":23,"material":2}],"name":"Book"},{"primitives":[{"attributes":{"POSITION":24,"NORMAL":25,"TANGENT":26,"TEXCOORD_0":27,"TEXCOORD_1":28},"indices":29,"extras":{"metadata":{"submeshes":[{"materialIndex":0,"verticesStart":0,"verticesCount":4,"indexStart":0,"indexCount":6},{"materialIndex":1,"verticesStart":4,"verticesCount":8,"indexStart":6,"indexCount":12},{"materialIndex":2,"verticesStart":12,"verticesCount":4,"indexStart":18,"indexCount":6},{"materialIndex":3,"verticesStart":16,"verticesCount":16,"indexStart":24,"indexCount":36}],"multimaterial":{"id":"3a6df95c-b8d9-495a-bbba-58a2cf53b55a","key":"KEY_3_4_5_6","name":"MM_Wall","materials":["3","4","5","6"]}}}}],"name":"Wall"},{"primitives":[{"attributes":{"POSITION":30,"NORMAL":31,"TANGENT":32,"TEXCOORD_0":33,"TEXCOORD_1":34},"indices":35,"extras":{"metadata":{"submeshes":[{"materialIndex":0,"verticesStart":0,"verticesCount":8,"indexStart":0,"indexCount":12},{"materialIndex":1,"verticesStart":8,"verticesCount":16,"indexStart":12,"indexCount":24},{"materialIndex":2,"verticesStart":24,"verticesCount":8,"indexStart":36,"indexCount":12},{"materialIndex":3,"verticesStart":32,"verticesCount":32,"indexStart":48,"indexCount":72}],"multimaterial":{"id":"f2e6a75c-5ec3-4c2e-8c61-17cc28e12571","key":"KEY_3_4_5_6","name":"MM_WallCorn ins","materials":["3","4","5","6"]}}}}],"name":"WallCorn ins"},{"primitives":[{"attributes":{"POSITION":36,"NORMAL":37,"TANGENT":38,"TEXCOORD_0":39,"TEXCOORD_1":40},"indices":41,"extras":{"metadata":{"submeshes":[{"materialIndex":0,"verticesStart":0,"verticesCount":8,"indexStart":0,"indexCount":12},{"materialIndex":1,"verticesStart":8,"verticesCount":16,"indexStart":12,"indexCount":24},{"materialIndex":2,"verticesStart":24,"verticesCount":8,"indexStart":36,"indexCount":12},{"materialIndex":3,"verticesStart":32,"verticesCount":32,"indexStart":48,"indexCount":72}],"multimaterial":null}}}],"name":"WallCorn ins.Collider"},{"primitives":[{"attributes":{"POSITION":42,"NORMAL":43,"TANGENT":44,"TEXCOORD_0":45,"TEXCOORD_1":46},"indices":47,"extras":{"metadata":{"submeshes":[{"materialIndex":0,"verticesStart":0,"verticesCount":58,"indexStart":0,"indexCount":93},{"materialIndex":1,"verticesStart":58,"verticesCount":97,"indexStart":93,"indexCount":159},{"materialIndex":2,"verticesStart":155,"verticesCount":16,"indexStart":252,"indexCount":24},{"materialIndex":3,"verticesStart":171,"verticesCount":16,"indexStart":276,"indexCount":36}],"multimaterial":{"id":"12e9f69a-53b0-4a39-a00c-b77d369a2024","key":"KEY_7_4_5_6","name":"MM_Box006","materials":["7","4","5","6"]}}}}],"name":"Box006"},{"primitives":[{"attributes":{"POSITION":48,"NORMAL":49,"TANGENT":50,"TEXCOORD_0":51,"TEXCOORD_1":52},"indices":53,"material":8}],"name":"Plane038"},{"primitives":[{"attributes":{"POSITION":54,"NORMAL":55,"TANGENT":56,"TEXCOORD_0":57,"TEXCOORD_1":58},"indices":59,"material":7}],"name":"Plane040"},{"primitives":[{"attributes":{"POSITION":60,"NORMAL":61,"TANGENT":62,"TEXCOORD_0":63,"TEXCOORD_1":64},"indices":65,"extras":{"metadata":{"submeshes":[{"materialIndex":0,"verticesStart":0,"verticesCount":6904,"indexStart":0,"indexCount":15372},{"materialIndex":1,"verticesStart":6904,"verticesCount":2403,"indexStart":15372,"indexCount":8280},{"materialIndex":2,"verticesStart":9307,"verticesCount":944,"indexStart":23652,"indexCount":3408},{"materialIndex":3,"verticesStart":10251,"verticesCount":3115,"indexStart":27060,"indexCount":11040},{"materialIndex":4,"verticesStart":13366,"verticesCount":1536,"indexStart":38100,"indexCount":5520},{"materialIndex":5,"verticesStart":14902,"verticesCount":3478,"indexStart":43620,"indexCount":12180},{"materialIndex":6,"verticesStart":18380,"verticesCount":1203,"indexStart":55800,"indexCount":4140},{"materialIndex":7,"verticesStart":19583,"verticesCount":2766,"indexStart":59940,"indexCount":9660},{"materialIndex":8,"verticesStart":22349,"verticesCount":1188,"indexStart":69600,"indexCount":4140},{"materialIndex":9,"verticesStart":23537,"verticesCount":792,"indexStart":73740,"indexCount":2760},{"materialIndex":10,"verticesStart":24329,"verticesCount":802,"indexStart":76500,"indexCount":2760}],"multimaterial":{"id":"d20aae62-f99e-455d-8582-47722719fc46","key":"KEY_9_10_11_12_13_14_15_16_17_18_19","name":"MM_BOOKS_1","materials":["9","10","11","12","13","14","15","16","17","18","19"]}}}}],"name":"BOOKS_1"},{"primitives":[{"attributes":{"POSITION":66,"NORMAL":67,"TANGENT":68,"TEXCOORD_0":69,"TEXCOORD_1":70},"indices":71,"extras":{"metadata":{"submeshes":[{"materialIndex":0,"verticesStart":0,"verticesCount":1943,"indexStart":0,"indexCount":5148},{"materialIndex":1,"verticesStart":1943,"verticesCount":1552,"indexStart":5148,"indexCount":4944}],"multimaterial":{"id":"ddcb5b26-5d2b-4a2d-aded-6566abfa47a6","key":"KEY_20_21","name":"MM_shkaff_obj_1","materials":["20","21"]}}}}],"name":"shkaff_obj_1"},{"primitives":[{"attributes":{"POSITION":72,"NORMAL":73,"TANGENT":74,"TEXCOORD_0":75,"TEXCOORD_1":76},"indices":77,"material":22}],"name":"Floor 2x2"}],"nodes":[{"children":[1,2,3,4],"name":"Lighting","extras":{"metadata":{"guid":"980fc048-cd5f-4465-81f2-e297d1040c15"}}},{"translation":[0.117,2.5,-0.841],"name":"Table","extras":{"metadata":{"guid":"f3fcc3a7-8fb0-4397-8b73-f80fc6861cb3","components":[{"alias":"light","type":1,"range":20.0,"culling":-1,"clearflags":0,"renderlist":null,"color":{"r":0.6698113,"g":0.667398632,"b":0.660332859,"a":1.0},"specular":{"r":0.6698113,"g":0.667398632,"b":0.660332859,"a":1.0},"intensity":75.3982239,"spotangle":30.0,"orthoscale":0.1,"autorender":true,"lightmapmode":2,"lightmaptype":4,"numcascades":4,"calczbounds":false,"updateextends":false,"ortholeft":1.7976931348623157E+308,"orthoright":1.7976931348623157E+308,"orthotop":1.7976931348623157E+308,"orthobottom":1.7976931348623157E+308,"softshadows":true,"shadowmapsize":4096,"shadowquality":"High","generateshadows":true,"shadowdistance":150.0,"shadowstrength":1.0,"shadowbiasfactor":0.1,"normalbiasfactor":0.01,"shadowmapbias":1.0,"normalmapbias":1.0,"shadownearplane":0.1,"cascadelambda":0.9,"twocascadesplit":0.333333343,"fourcascadesplit":[0.06666667,0.2,0.466666669],"blendpertecntage":1E-08,"boundsrefreshrate":1,"lightcontactratio":0.1,"stabilizecascades":false,"exponentdecayspeed":1.0,"penumbradarkness":1.0,"softshadowsfilter":99,"freezeshadows":false,"setdepthclamp":false,"calcdepths":false,"depthscaling":50.0,"kernelblur":false,"blurscaling":2.0,"blurkernelsize":1.0,"blurboxoffset":1.0,"shadowfrustumsize":0.0,"frustumedgefalloff":0.0,"forcebackfacesonly":false,"transparencyshadow":false,"softtransparency":false,"shadowfilterquality":"Medium","usefullfloatfirst":false}]}}},{"translation":[5.5,2.5,3.0],"name":"Room","extras":{"metadata":{"guid":"979477a1-ea61-4241-a576-49ec3fd539bf","components":[{"alias":"light","type":1,"range":20.0,"culling":-1,"clearflags":0,"renderlist":null,"color":{"r":0.6698113,"g":0.5950368,"b":0.4454877,"a":1.0},"specular":{"r":0.6698113,"g":0.5950368,"b":0.4454877,"a":1.0},"intensity":32.67256,"spotangle":30.0,"orthoscale":0.1,"autorender":true,"lightmapmode":2,"lightmaptype":4,"numcascades":4,"calczbounds":false,"updateextends":false,"ortholeft":1.7976931348623157E+308,"orthoright":1.7976931348623157E+308,"orthotop":1.7976931348623157E+308,"orthobottom":1.7976931348623157E+308,"softshadows":true,"shadowmapsize":4096,"shadowquality":"High","generateshadows":true,"shadowdistance":150.0,"shadowstrength":1.0,"shadowbiasfactor":0.1,"normalbiasfactor":0.01,"shadowmapbias":1.0,"normalmapbias":1.0,"shadownearplane":0.1,"cascadelambda":0.9,"twocascadesplit":0.333333343,"fourcascadesplit":[0.06666667,0.2,0.466666669],"blendpertecntage":1E-08,"boundsrefreshrate":1,"lightcontactratio":0.1,"stabilizecascades":false,"exponentdecayspeed":1.0,"penumbradarkness":1.0,"softshadowsfilter":99,"freezeshadows":false,"setdepthclamp":false,"calcdepths":false,"depthscaling":50.0,"kernelblur":false,"blurscaling":2.0,"blurkernelsize":1.0,"blurboxoffset":1.0,"shadowfrustumsize":0.0,"frustumedgefalloff":0.0,"forcebackfacesonly":false,"transparencyshadow":false,"softtransparency":false,"shadowfilterquality":"Medium","usefullfloatfirst":false}]}}},{"rotation":[0.373247355,-0.203897819,0.08445724,0.9010989],"translation":[0.0,50.0,0.0],"name":"Directional Light","extras":{"metadata":{"guid":"dd1ef6a4-02bb-4e96-84bf-17ebe749aa88","components":[{"alias":"light","type":0,"range":10.0,"culling":-1,"clearflags":0,"renderlist":null,"color":{"r":0.9433962,"g":0.9250727,"b":0.849946558,"a":1.0},"specular":{"r":0.9433962,"g":0.9250727,"b":0.849946558,"a":1.0},"intensity":3.14159274,"spotangle":30.0,"orthoscale":0.1,"autorender":true,"lightmapmode":2,"lightmaptype":4,"numcascades":4,"calczbounds":false,"updateextends":false,"ortholeft":1.7976931348623157E+308,"orthoright":1.7976931348623157E+308,"orthotop":1.7976931348623157E+308,"orthobottom":1.7976931348623157E+308,"softshadows":false,"shadowmapsize":4096,"shadowquality":"High","generateshadows":false,"shadowdistance":150.0,"shadowstrength":1.0,"shadowbiasfactor":0.1,"normalbiasfactor":0.01,"shadowmapbias":1.0,"normalmapbias":1.0,"shadownearplane":0.2,"cascadelambda":0.9,"twocascadesplit":0.333333343,"fourcascadesplit":[0.06666667,0.2,0.466666669],"blendpertecntage":1E-08,"boundsrefreshrate":1,"lightcontactratio":0.1,"stabilizecascades":false,"exponentdecayspeed":1.0,"penumbradarkness":1.0,"softshadowsfilter":99,"freezeshadows":false,"setdepthclamp":false,"calcdepths":false,"depthscaling":50.0,"kernelblur":false,"blurscaling":2.0,"blurkernelsize":1.0,"blurboxoffset":1.0,"shadowfrustumsize":0.0,"frustumedgefalloff":0.0,"forcebackfacesonly":false,"transparencyshadow":false,"softtransparency":false,"shadowfilterquality":"Medium","usefullfloatfirst":false}]}}},{"rotation":[0.830318332,-0.031000657,0.04642206,0.5544867],"translation":[0.0,10.0,0.0],"name":"Directional Light (1)","extras":{"metadata":{"guid":"746dae38-e942-472c-8932-64957bd54c84","components":[{"alias":"light","type":0,"range":10.0,"culling":-1,"clearflags":0,"renderlist":null,"color":{"r":0.9150943,"g":0.833669066,"b":0.513661444,"a":1.0},"specular":{"r":0.9150943,"g":0.833669066,"b":0.513661444,"a":1.0},"intensity":0.7853982,"spotangle":30.0,"orthoscale":0.1,"autorender":true,"lightmapmode":2,"lightmaptype":4,"numcascades":4,"calczbounds":false,"updateextends":false,"ortholeft":1.7976931348623157E+308,"orthoright":1.7976931348623157E+308,"orthotop":1.7976931348623157E+308,"orthobottom":1.7976931348623157E+308,"softshadows":false,"shadowmapsize":4096,"shadowquality":"High","generateshadows":false,"shadowdistance":150.0,"shadowstrength":1.0,"shadowbiasfactor":0.1,"normalbiasfactor":0.01,"shadowmapbias":1.0,"normalmapbias":1.0,"shadownearplane":0.2,"cascadelambda":0.9,"twocascadesplit":0.333333343,"fourcascadesplit":[0.06666667,0.2,0.466666669],"blendpertecntage":1E-08,"boundsrefreshrate":1,"lightcontactratio":0.1,"stabilizecascades":false,"exponentdecayspeed":1.0,"penumbradarkness":1.0,"softshadowsfilter":99,"freezeshadows":false,"setdepthclamp":false,"calcdepths":false,"depthscaling":50.0,"kernelblur":false,"blurscaling":2.0,"blurkernelsize":1.0,"blurboxoffset":1.0,"shadowfrustumsize":0.0,"frustumedgefalloff":0.0,"forcebackfacesonly":false,"transparencyshadow":false,"softtransparency":false,"shadowfilterquality":"Medium","usefullfloatfirst":false}]}}},{"children":[6],"name":"Furniture","extras":{"metadata":{"guid":"d493a0b1-da1c-4014-8dfc-16d52fe993e7"}}},{"children":[7,9,12],"name":"Main","extras":{"metadata":{"guid":"13c28c8d-c9e9-4b39-971e-2795a797e74b"}}},{"children":[8],"rotation":[0.0,0.8471211,0.0,0.531399846],"scale":[0.00150000013,0.0015,0.00150000013],"translation":[0.9,0.621,-0.29],"name":"chair_low","extras":{"metadata":{"guid":"d2ecfdd1-f1ec-4dea-8b1c-3788a744a626"}}},{"mesh":0,"name":"initialShadingGroup_lowpoly_mesh","extras":{"metadata":{"guid":"c6e2ff08-ec7e-440c-bc1d-ab0d4d7f713e","renderer":{"castshadows":true,"receiveshadows":true,"snapshotrendering":0,"usevertexcolors":false,"istriggervolume":false,"checkcollisions":false,"hasmeshcollider":false,"freezeworldmatrix":false,"setmeshpickable":true,"cullingstrategy":0,"showboundingbox":false,"defaultellipsoid":{"x":0.5,"y":1.0,"z":0.5},"ellipsoidoffset":{"x":0.0,"y":0.0,"z":0.0},"rendergroupid":0}}}},{"children":[10,11],"rotation":[0.0,-0.309846848,0.0,0.9507865],"scale":[0.8,1.0,0.8],"translation":[-0.04,-0.008999944,-0.08],"name":"round_wooden_table_01_4k","extras":{"metadata":{"guid":"65e748c1-9e2d-4ffc-999d-597bb15f84e3"}}},{"mesh":1,"rotation":[-0.7071068,0.0,0.0,0.7071067],"scale":[100.0,100.0,100.0],"name":"round_wooden_table_01","extras":{"metadata":{"guid":"d6bfd36c-f3c6-426b-9719-fb625966f5ee","renderer":{"castshadows":true,"receiveshadows":true,"snapshotrendering":0,"usevertexcolors":false,"istriggervolume":false,"checkcollisions":true,"hasmeshcollider":false,"freezeworldmatrix":false,"setmeshpickable":true,"cullingstrategy":0,"showboundingbox":false,"defaultellipsoid":{"x":0.5,"y":1.0,"z":0.5},"ellipsoidoffset":{"x":0.0,"y":0.0,"z":0.0},"rendergroupid":0}}}},{"mesh":2,"rotation":[-0.7071068,0.0,0.0,0.7071067],"scale":[100.0,100.0,100.0],"name":"round_wooden_table_01_bolts","extras":{"metadata":{"guid":"17d77247-0efb-4277-af6d-e87be15b5bb0","renderer":{"castshadows":true,"receiveshadows":true,"snapshotrendering":0,"usevertexcolors":false,"istriggervolume":false,"checkcollisions":false,"hasmeshcollider":false,"freezeworldmatrix":false,"setmeshpickable":true,"cullingstrategy":0,"showboundingbox":false,"defaultellipsoid":{"x":0.5,"y":1.0,"z":0.5},"ellipsoidoffset":{"x":0.0,"y":0.0,"z":0.0},"rendergroupid":0}}}},{"children":[13],"rotation":[0.0,0.798952043,0.0,-0.6013948],"scale":[0.00150000036,0.0015,0.00150000036],"translation":[-0.992,0.621,-0.387],"name":"chair_low (1)","extras":{"metadata":{"guid":"d9af49c5-f0e5-462f-a031-d626c406db28"}}},{"mesh":0,"rotation":[0.0,0.227716684,0.0,0.973727465],"translation":[350.0,0.0,97.0],"name":"initialShadingGroup_lowpoly_mesh","extras":{"metadata":{"guid":"0e92f569-0ff6-48df-ac15-4d8b01fcf44e","renderer":{"castshadows":true,"receiveshadows":true,"snapshotrendering":0,"usevertexcolors":false,"istriggervolume":false,"checkcollisions":false,"hasmeshcollider":false,"freezeworldmatrix":false,"setmeshpickable":true,"cullingstrategy":0,"showboundingbox":false,"defaultellipsoid":{"x":0.5,"y":1.0,"z":0.5},"ellipsoidoffset":{"x":0.0,"y":0.0,"z":0.0},"rendergroupid":0}}}},{"children":[15,16,18],"name":"Cameras","extras":{"metadata":{"guid":"7f00bf58-d803-414c-9146-de333df8f091"}}},{"rotation":[0.148201436,-0.269031316,0.04193678,0.9507365],"translation":[0.678,1.5,-1.219],"name":"Main Camera","extras":{"metadata":{"guid":"caba2d7c-b9c5-4a1c-9f15-ee492ba206a5","group":"MainCamera","tags":"MainCamera Layer0","components":[{"alias":"camera","type":0,"culling":383,"clearflags":1,"renderlist":["8d7cce1a-d37f-4d97-8101-4fdb4e1a68bd","bcfd76da-ce41-46cf-b4d3-6a6aec4ac56b","6e3c6246-0b31-4d06-b3db-80d100796d02","c6e2ff08-ec7e-440c-bc1d-ab0d4d7f713e","0e92f569-0ff6-48df-ac15-4d8b01fcf44e","ae18eb91-cf39-43ce-882a-3edba8e3018b","c34bdd98-5ed7-44c0-8b2a-aa83776cd9df","efeb2185-98fa-483e-b034-7c783bcb988b","17d77247-0efb-4277-af6d-e87be15b5bb0","0a70e2c9-39c7-4f29-aac3-e3f0de7d6ab3","355b460c-c5b7-4ff2-b8ff-81a3c8d80aef","22bd9a25-0d5d-4582-80e5-55d967c0ebd5","9f7a55f0-f968-4f40-9c77-f5165b892a6b","6e2c424b-7102-41ae-9732-fd61398b7363","6af85173-d510-4a49-a418-520df6b4a414","6271c1a1-f889-496e-a4b7-32dc5cb4395b","d6bfd36c-f3c6-426b-9719-fb625966f5ee"],"maincamera":true,"camerabase":0,"perspectiveyfov":0.506145537,"perspectiveaspect":1.6,"perspectivezfar":9997,"perspectiveznear":0.100000009}]}}},{"children":[17],"rotation":[0.148201436,-0.269031316,0.04193678,0.9507365],"translation":[0.678,1.5,-1.219],"name":"Virtual Camera (2)","extras":{"metadata":{"guid":"3d05e798-c290-4453-b6a0-3d93af8b202a"}}},{"name":"cm","extras":{"metadata":{"guid":"e16f2830-b758-4db4-8287-2fed612c5c3b"}}},{"translation":[-5.0,1.0,0.0],"name":"Book Camera","extras":{"metadata":{"guid":"16b39536-7e51-4a00-b8c3-38ea7ad80f47","components":[{"alias":"camera","type":1,"culling":160,"clearflags":4,"renderlist":["3b28caa7-b6b3-413a-8945-7c6210433504"],"maincamera":false,"camerabase":0,"orthoxmag":0.24000001,"orthoymag":0.15,"orthozfar":2011,"orthoznear":0.09992186}]}}},{"children":[20,21],"rotation":[0.0435778871,-0.862729967,0.07547913,0.4980973],"scale":[1.00000012,1.0,1.00000012],"translation":[-10.0,0.9,0.3],"name":"BookDisplayV2","extras":{"metadata":{"guid":"1d898a6e-0379-4c4a-bf5c-26cf3d9dca11","layer":7,"layermask":128,"layername":"DisplayBook","tags":"Untagged Layer7"}}},{"mesh":3,"name":"Book","extras":{"metadata":{"guid":"3b28caa7-b6b3-413a-8945-7c6210433504","layer":7,"layermask":128,"layername":"DisplayBook","tags":"Untagged Layer7","renderer":{"castshadows":true,"receiveshadows":true,"snapshotrendering":0,"usevertexcolors":false,"istriggervolume":false,"checkcollisions":false,"hasmeshcollider":false,"freezeworldmatrix":false,"setmeshpickable":true,"cullingstrategy":0,"showboundingbox":false,"defaultellipsoid":{"x":0.5,"y":1.0,"z":0.5},"ellipsoidoffset":{"x":0.0,"y":0.0,"z":0.0},"rendergroupid":0}}}},{"rotation":[0.0,0.7071068,0.0,0.7071068],"translation":[-0.1838,0.1087,0.0],"name":"Point Light","extras":{"metadata":{"guid":"363866db-9ac4-4014-897d-12ffa9c5e574","layer":7,"layermask":128,"layername":"DisplayBook","tags":"Untagged Layer7","components":[{"alias":"light","type":2,"range":0.5,"culling":-1,"clearflags":0,"renderlist":null,"color":{"r":1.0,"g":1.0,"b":1.0,"a":1.0},"specular":{"r":1.0,"g":1.0,"b":1.0,"a":1.0},"intensity":0.251327425,"spotangle":179.0,"orthoscale":0.1,"autorender":true,"lightmapmode":2,"lightmaptype":4,"numcascades":4,"calczbounds":false,"updateextends":false,"ortholeft":1.7976931348623157E+308,"orthoright":1.7976931348623157E+308,"orthotop":1.7976931348623157E+308,"orthobottom":1.7976931348623157E+308,"softshadows":false,"shadowmapsize":4096,"shadowquality":"High","generateshadows":false,"shadowdistance":150.0,"shadowstrength":1.0,"shadowbiasfactor":0.1,"normalbiasfactor":0.01,"shadowmapbias":1.0,"normalmapbias":1.0,"shadownearplane":0.2,"cascadelambda":0.9,"twocascadesplit":0.333333343,"fourcascadesplit":[0.06666667,0.2,0.466666669],"blendpertecntage":1E-08,"boundsrefreshrate":1,"lightcontactratio":0.1,"stabilizecascades":false,"exponentdecayspeed":1.0,"penumbradarkness":1.0,"softshadowsfilter":99,"freezeshadows":false,"setdepthclamp":false,"calcdepths":false,"depthscaling":50.0,"kernelblur":false,"blurscaling":2.0,"blurkernelsize":1.0,"blurboxoffset":1.0,"shadowfrustumsize":0.0,"frustumedgefalloff":0.0,"forcebackfacesonly":false,"transparencyshadow":false,"softtransparency":false,"shadowfilterquality":"Medium","usefullfloatfirst":false}]}}},{"name":"PlayerControl","extras":{"metadata":{"guid":"ababf813-20d8-486e-ab77-9416b5d45d95"}}},{"children":[24,25,26,27],"scale":[0.000416666677,0.000416666677,0.000416666677],"translation":[-5.0,1.0,1.0],"name":"BookCanvas","extras":{"metadata":{"guid":"f5648559-a609-4aaa-b72f-e4ea946cf7bf","layer":5,"layermask":32,"layername":"UI","tags":"Untagged Layer5"}}},{"name":"ResponseTextBackground","extras":{"metadata":{"guid":"2b2d905b-2805-4dd8-a401-ab6d70cdb1ba","layer":5,"layermask":32,"layername":"UI","tags":"Untagged Layer5"}}},{"translation":[24.0,-312.0,0.0],"name":"BookTitle","extras":{"metadata":{"guid":"e157e15c-2c2a-4bdb-b528-2d243920e5ac","layer":5,"layermask":32,"layername":"UI","tags":"Untagged Layer5"}}},{"translation":[200.0,20.0,0.0],"name":"ResponseTextImage","extras":{"metadata":{"guid":"a98bc76d-a326-45c8-ad86-5a45d88dc1eb","layer":5,"layermask":32,"layername":"UI","tags":"Untagged Layer5"}}},{"children":[28],"translation":[200.0,20.0,0.0],"name":"ResponseTextViewport","extras":{"metadata":{"guid":"c5edce74-d7da-4f17-9411-de7a08321647"}}},{"translation":[0.0,300.0,1.0],"name":"ResponseText","extras":{"metadata":{"guid":"35a6cfcc-300f-4174-89c1-c13a1ad26a4e","layer":5,"layermask":32,"layername":"UI","tags":"Untagged Layer5"}}},{"name":"EventSystem","extras":{"metadata":{"guid":"3273c879-e394-42cb-863a-7f25e8b46b46"}}},{"children":[31,32,33,34,35,36,37,38],"name":"BookAnchors","extras":{"metadata":{"guid":"329c8365-b99f-4ba0-8fa9-6727d03e7231"}}},{"rotation":[-0.6728757,0.6728757,-0.2173438,0.2173438],"translation":[-0.077,1.03,-0.224],"name":"GameObject","extras":{"metadata":{"guid":"ae30c2fc-f8ff-4302-a199-e57171b9ca27"}}},{"rotation":[-0.703759134,0.703759134,-0.0687252954,0.0687252954],"translation":[-0.179,1.03,-0.137],"name":"GameObject (1)","extras":{"metadata":{"guid":"db3610d0-370d-4fe9-a8a0-c0885edec491"}}},{"rotation":[-0.183012739,0.183012739,-0.6830127,0.6830127],"translation":[0.069,1.03,0.195],"name":"GameObject (2)","extras":{"metadata":{"guid":"e3541481-0c51-4ae0-8c44-1e1bbe8f514e"}}},{"rotation":[0.320243031,-0.320243031,-0.63043195,0.63043195],"translation":[0.226,1.03,-0.316],"name":"GameObject (3)","extras":{"metadata":{"guid":"7ea4576f-1ba0-499c-9b1e-ff2e1fd52b8c"}}},{"rotation":[0.181444034,-0.181444034,-0.6834311,0.6834311],"translation":[0.044,1.03,-0.412],"name":"GameObject (4)","extras":{"metadata":{"guid":"92da2d7f-b16f-4db6-8762-230ea14f9ec0"}}},{"rotation":[0.181444034,-0.181444034,-0.6834311,0.6834311],"translation":[-0.066,1.151,0.016],"name":"GameObject (5)","extras":{"metadata":{"guid":"2e66960d-cd0e-4197-81b2-e1f41eb8a133"}}},{"rotation":[0.0174222,-0.0174222011,-0.706892133,0.706892133],"translation":[-0.001,1.151,-0.075],"name":"GameObject (6)","extras":{"metadata":{"guid":"b8b54337-d2dc-41b8-bdef-3483de443e36"}}},{"rotation":[0.274913877,-0.2749139,-0.651477039,0.651477039],"translation":[-0.227,1.241,0.03400001],"name":"GameObject (7)","extras":{"metadata":{"guid":"28264bf3-5db8-4cc1-b80b-4ddf7cc87305"}}},{"name":"BookCoverService","extras":{"metadata":{"guid":"e19252e6-cf72-452c-9d5c-0976ecb1e957"}}},{"children":[41,42,43,45,50,53],"rotation":[0.0,0.7803213,0.0,0.625378847],"scale":[0.320000023,0.32,0.320000023],"translation":[-2.22,0.0,1.0],"name":"Room","extras":{"metadata":{"guid":"46fe0aa4-2eb9-4021-a14e-ff12d04ae2b5"}}},{"mesh":4,"rotation":[0.0,0.7071068,0.0,0.7071068],"translation":[-6.95,0.0,8.0],"name":"Wall","extras":{"metadata":{"guid":"6e2c424b-7102-41ae-9732-fd61398b7363","navigation":{"area":0,"links":null},"tags":"Untagged NavigationStatic Layer0","renderer":{"castshadows":false,"receiveshadows":true,"snapshotrendering":0,"usevertexcolors":false,"istriggervolume":false,"checkcollisions":true,"hasmeshcollider":false,"freezeworldmatrix":true,"setmeshpickable":true,"cullingstrategy":0,"showboundingbox":false,"defaultellipsoid":{"x":0.5,"y":1.0,"z":0.5},"ellipsoidoffset":{"x":0.0,"y":0.0,"z":0.0},"rendergroupid":0}}}},{"mesh":4,"translation":[6.04,0.0,0.65],"name":"Wall (1)","extras":{"metadata":{"guid":"6e3c6246-0b31-4d06-b3db-80d100796d02","navigation":{"area":0,"links":null},"tags":"Untagged NavigationStatic Layer0","renderer":{"castshadows":false,"receiveshadows":true,"snapshotrendering":0,"usevertexcolors":false,"istriggervolume":false,"checkcollisions":true,"hasmeshcollider":false,"freezeworldmatrix":true,"setmeshpickable":true,"cullingstrategy":0,"showboundingbox":false,"defaultellipsoid":{"x":0.5,"y":1.0,"z":0.5},"ellipsoidoffset":{"x":0.0,"y":0.0,"z":0.0},"rendergroupid":0}}}},{"children":[44],"mesh":5,"rotation":[0.0,0.7071068,0.0,0.7071068],"translation":[-5.0,0.0,2.6],"name":"WallCorn ins","extras":{"metadata":{"guid":"ae18eb91-cf39-43ce-882a-3edba8e3018b","navigation":{"area":0,"links":null},"tags":"Untagged NavigationStatic Layer0","renderer":{"castshadows":false,"receiveshadows":true,"snapshotrendering":0,"usevertexcolors":false,"istriggervolume":false,"checkcollisions":true,"hasmeshcollider":true,"freezeworldmatrix":true,"setmeshpickable":true,"cullingstrategy":0,"showboundingbox":false,"defaultellipsoid":{"x":0.5,"y":1.0,"z":0.5},"ellipsoidoffset":{"x":0.0,"y":0.0,"z":0.0},"rendergroupid":0}}}},{"mesh":6,"name":"WallCorn ins.Collider","extras":{"metadata":{"guid":"ae18eb91-cf39-43ce-882a-3edba8e3018b","visible":false,"visibility":0.5,"tags":"CollisionMesh Layer0","collision":{"type":"MeshCollider","entity":"WallCorn ins","center":{"x":0.0,"y":0.0,"z":0.0},"trigger":false,"persist":false,"meshkey":null,"boxsize":{"x":0.0,"y":0.0,"z":0.0},"segments":24,"cylinder":false,"compound":false,"convexmesh":false,"sourcescale":{"x":1.0,"y":1.0,"z":1.0},"capsulesize":{"x":0.0,"y":0.0,"z":0.0},"sphereradius":0.0,"restitution":0.0,"dynamicfriction":0.0,"staticfriction":0.0,"frictioncombine":0,"restitutioncombine":0,"wheelinformation":null,"compoundcolliders":null,"colliderinstances":true},"renderer":{"castshadows":false,"receiveshadows":false,"snapshotrendering":0,"usevertexcolors":false,"istriggervolume":true,"checkcollisions":true,"hasmeshcollider":false,"freezeworldmatrix":true,"setmeshpickable":false,"cullingstrategy":0,"showboundingbox":false}}}},{"children":[46,47,48,49],"translation":[-0.42,0.0,0.0],"name":"Window","extras":{"metadata":{"guid":"d37bcb1c-6a6c-40bb-95b5-85bbbc4cd095","navigation":{"area":0,"links":null},"tags":"Untagged NavigationStatic Layer0"}}},{"mesh":7,"translation":[0.0032749176,0.0,0.0577549934],"name":"Box006","extras":{"metadata":{"guid":"9f7a55f0-f968-4f40-9c77-f5165b892a6b","navigation":{"area":0,"links":null},"tags":"Untagged NavigationStatic Layer0","renderer":{"castshadows":false,"receiveshadows":true,"snapshotrendering":0,"usevertexcolors":false,"istriggervolume":false,"checkcollisions":true,"hasmeshcollider":false,"freezeworldmatrix":true,"setmeshpickable":true,"cullingstrategy":0,"showboundingbox":false,"defaultellipsoid":{"x":0.5,"y":1.0,"z":0.5},"ellipsoidoffset":{"x":0.0,"y":0.0,"z":0.0},"rendergroupid":0}}}},{"mesh":8,"translation":[0.0,4.09,0.06],"name":"Plane038","extras":{"metadata":{"guid":"22bd9a25-0d5d-4582-80e5-55d967c0ebd5","navigation":{"area":0,"links":null},"tags":"Untagged NavigationStatic Layer0","renderer":{"castshadows":false,"receiveshadows":false,"snapshotrendering":0,"usevertexcolors":false,"istriggervolume":false,"checkcollisions":false,"hasmeshcollider":false,"freezeworldmatrix":true,"setmeshpickable":true,"cullingstrategy":0,"showboundingbox":false,"defaultellipsoid":{"x":0.5,"y":1.0,"z":0.5},"ellipsoidoffset":{"x":0.0,"y":0.0,"z":0.0},"rendergroupid":0}}}},{"mesh":9,"translation":[0.0,4.112,0.07],"name":"Plane040","extras":{"metadata":{"guid":"355b460c-c5b7-4ff2-b8ff-81a3c8d80aef","navigation":{"area":0,"links":null},"tags":"Untagged NavigationStatic Layer0","renderer":{"castshadows":false,"receiveshadows":true,"snapshotrendering":0,"usevertexcolors":false,"istriggervolume":false,"checkcollisions":false,"hasmeshcollider":false,"freezeworldmatrix":true,"setmeshpickable":true,"cullingstrategy":0,"showboundingbox":false,"defaultellipsoid":{"x":0.5,"y":1.0,"z":0.5},"ellipsoidoffset":{"x":0.0,"y":0.0,"z":0.0},"rendergroupid":0}}}},{"mesh":8,"rotation":[0.0,0.0,-1.0,5.8114523E-07],"translation":[0.0,4.09,-0.35],"name":"Plane038 (1)","extras":{"metadata":{"guid":"0a70e2c9-39c7-4f29-aac3-e3f0de7d6ab3","navigation":{"area":0,"links":null},"tags":"Untagged NavigationStatic Layer0","renderer":{"castshadows":false,"receiveshadows":false,"snapshotrendering":0,"usevertexcolors":false,"istriggervolume":false,"checkcollisions":false,"hasmeshcollider":false,"freezeworldmatrix":true,"setmeshpickable":true,"cullingstrategy":0,"showboundingbox":false,"defaultellipsoid":{"x":0.5,"y":1.0,"z":0.5},"ellipsoidoffset":{"x":0.0,"y":0.0,"z":0.0},"rendergroupid":0}}}},{"children":[51,52],"rotation":[0.0,1.0,0.0,0.0],"scale":[1.71874976,1.71875,1.71874976],"translation":[-7.05,0.0,1.06],"name":"shkaff","extras":{"metadata":{"guid":"d3f4be1b-2f4f-47e8-88c0-3accf68ce268"}}},{"mesh":10,"translation":[-0.8212773,2.51691532,-2.07894039],"name":"BOOKS_1","extras":{"metadata":{"guid":"6271c1a1-f889-496e-a4b7-32dc5cb4395b","renderer":{"castshadows":true,"receiveshadows":true,"snapshotrendering":0,"usevertexcolors":false,"istriggervolume":false,"checkcollisions":false,"hasmeshcollider":false,"freezeworldmatrix":false,"setmeshpickable":true,"cullingstrategy":0,"showboundingbox":false,"defaultellipsoid":{"x":0.5,"y":1.0,"z":0.5},"ellipsoidoffset":{"x":0.0,"y":0.0,"z":0.0},"rendergroupid":0}}}},{"mesh":11,"name":"shkaff_obj_1","extras":{"metadata":{"guid":"6af85173-d510-4a49-a418-520df6b4a414","renderer":{"castshadows":true,"receiveshadows":true,"snapshotrendering":0,"usevertexcolors":false,"istriggervolume":false,"checkcollisions":false,"hasmeshcollider":false,"freezeworldmatrix":false,"setmeshpickable":true,"cullingstrategy":0,"showboundingbox":false,"defaultellipsoid":{"x":0.5,"y":1.0,"z":0.5},"ellipsoidoffset":{"x":0.0,"y":0.0,"z":0.0},"rendergroupid":0}}}},{"children":[54,55,56,57],"scale":[3.12499976,3.125,3.12499976],"translation":[-2.95,0.0,6.1],"name":"Floor","extras":{"metadata":{"guid":"e8fc73c0-aa3c-466a-a180-1f5e7efa5f7c"}}},{"mesh":12,"name":"Floor 2x2","extras":{"metadata":{"guid":"efeb2185-98fa-483e-b034-7c783bcb988b","navigation":{"area":0,"links":null},"tags":"Untagged NavigationStatic Layer0","renderer":{"castshadows":false,"receiveshadows":true,"snapshotrendering":0,"usevertexcolors":false,"istriggervolume":false,"checkcollisions":true,"hasmeshcollider":false,"freezeworldmatrix":true,"setmeshpickable":true,"cullingstrategy":0,"showboundingbox":false,"defaultellipsoid":{"x":0.5,"y":1.0,"z":0.5},"ellipsoidoffset":{"x":0.0,"y":0.0,"z":0.0},"rendergroupid":0}}}},{"mesh":12,"translation":[0.0,0.0,4.0],"name":"Floor 2x2 (1)","extras":{"metadata":{"guid":"8d7cce1a-d37f-4d97-8101-4fdb4e1a68bd","navigation":{"area":0,"links":null},"tags":"Untagged NavigationStatic Layer0","renderer":{"castshadows":false,"receiveshadows":true,"snapshotrendering":0,"usevertexcolors":false,"istriggervolume":false,"checkcollisions":true,"hasmeshcollider":false,"freezeworldmatrix":true,"setmeshpickable":true,"cullingstrategy":0,"showboundingbox":false,"defaultellipsoid":{"x":0.5,"y":1.0,"z":0.5},"ellipsoidoffset":{"x":0.0,"y":0.0,"z":0.0},"rendergroupid":0}}}},{"mesh":12,"translation":[4.0,0.0,4.0],"name":"Floor 2x2 (2)","extras":{"metadata":{"guid":"bcfd76da-ce41-46cf-b4d3-6a6aec4ac56b","navigation":{"area":0,"links":null},"tags":"Untagged NavigationStatic Layer0","renderer":{"castshadows":false,"receiveshadows":true,"snapshotrendering":0,"usevertexcolors":false,"istriggervolume":false,"checkcollisions":true,"hasmeshcollider":false,"freezeworldmatrix":true,"setmeshpickable":true,"cullingstrategy":0,"showboundingbox":false,"defaultellipsoid":{"x":0.5,"y":1.0,"z":0.5},"ellipsoidoffset":{"x":0.0,"y":0.0,"z":0.0},"rendergroupid":0}}}},{"mesh":12,"translation":[4.0,0.0,0.0],"name":"Floor 2x2 (3)","extras":{"metadata":{"guid":"c34bdd98-5ed7-44c0-8b2a-aa83776cd9df","navigation":{"area":0,"links":null},"tags":"Untagged NavigationStatic Layer0","renderer":{"castshadows":false,"receiveshadows":true,"snapshotrendering":0,"usevertexcolors":false,"istriggervolume":false,"checkcollisions":true,"hasmeshcollider":false,"freezeworldmatrix":true,"setmeshpickable":true,"cullingstrategy":0,"showboundingbox":false,"defaultellipsoid":{"x":0.5,"y":1.0,"z":0.5},"ellipsoidoffset":{"x":0.0,"y":0.0,"z":0.0},"rendergroupid":0}}}},{"translation":[-0.1311091,-9.431056,1.07056415],"name":"Global Volume","extras":{"metadata":{"guid":"29781737-3ec7-46b3-ae17-4c2fda96adb7"}}},{"name":"SkyboxController","extras":{"metadata":{"guid":"a5600020-5cc6-477d-a170-e2fc1875f1b2"}}},{"children":[61,74],"scale":[0.757629037,0.757629037,0.757629037],"translation":[460.0,287.5,0.0],"name":"SubmissionCanvas","extras":{"metadata":{"guid":"179d6ff3-8528-455f-b8f2-4995c70b6d24","layer":5,"layermask":32,"layername":"UI","tags":"Untagged Layer5"}}},{"children":[62,71],"name":"RoomHUD","extras":{"metadata":{"guid":"52b39dd7-d797-456b-b584-7abf14679174","layer":5,"layermask":32,"layername":"UI","tags":"Untagged Layer5"}}},{"children":[63,65,66,68,69],"translation":[-587.1573,363.4733,0.0],"name":"LangSelector","extras":{"metadata":{"guid":"8847f388-8721-43ee-a4d4-deda4ce112ea","layer":5,"layermask":32,"layername":"UI","tags":"Untagged Layer5"}}},{"children":[64],"translation":[8.0,-16.0,0.0],"name":"LangBtnEN","extras":{"metadata":{"guid":"a18773a4-8595-480e-85fb-ca25d5231a5a","layer":5,"layermask":32,"layername":"UI","tags":"Untagged Layer5"}}},{"translation":[12.0,0.0,0.0],"name":"Text","extras":{"metadata":{"guid":"d447dae2-6224-4130-a04a-9fdbbbb33f02","layer":5,"layermask":32,"layername":"UI","tags":"Untagged Layer5"}}},{"translation":[38.0,-16.0,0.0],"name":"LangSep1","extras":{"metadata":{"guid":"96fa4dd2-70c4-45a5-bfc8-2acda32284aa","layer":5,"layermask":32,"layername":"UI","tags":"Untagged Layer5"}}},{"children":[67],"translation":[44.0,-16.0,0.0],"name":"LangBtnKO","extras":{"metadata":{"guid":"0cd68eeb-0148-4d1f-a98b-903772b5b3a4","layer":5,"layermask":32,"layername":"UI","tags":"Untagged Layer5"}}},{"translation":[12.0,0.0,0.0],"name":"Text","extras":{"metadata":{"guid":"bfba720b-e41b-487b-8041-29fdc12e7c99","layer":5,"layermask":32,"layername":"UI","tags":"Untagged Layer5"}}},{"translation":[74.0,-16.0,0.0],"name":"LangSep2","extras":{"metadata":{"guid":"41e28f5f-1fd2-404d-8ac2-d9f3faf748b6","layer":5,"layermask":32,"layername":"UI","tags":"Untagged Layer5"}}},{"children":[70],"translation":[80.0,-16.0,0.0],"name":"LangBtnES","extras":{"metadata":{"guid":"f8bf53b4-6f72-494f-a7ad-1c7fbbf70323","layer":5,"layermask":32,"layername":"UI","tags":"Untagged Layer5"}}},{"translation":[12.0,0.0,0.0],"name":"Text","extras":{"metadata":{"guid":"61118aee-ca84-4fbd-94cb-2a291d64e6f9","layer":5,"layermask":32,"layername":"UI","tags":"Untagged Layer5"}}},{"children":[72],"translation":[407.157257,-331.4733,0.0],"name":"OpenPanelBtn","extras":{"metadata":{"guid":"a7036a72-5c0e-4127-9351-57cea50bb956","layer":5,"layermask":32,"layername":"UI","tags":"Untagged Layer5"}}},{"children":[73],"translation":[-24.0,0.0,0.0],"name":"Text","extras":{"metadata":{"guid":"5afb1afe-a618-4857-9fa7-7627b357b5f1","layer":5,"layermask":32,"layername":"UI","tags":"Untagged Layer5"}}},{"name":"TMP SubMeshUI [IMFellEnglish-Regular SDF Material + NotoSerifKR-Regular Atlas]","extras":{"metadata":{"guid":"45589f4f-0b26-4d12-ba20-bcfec766d82f","layer":5,"layermask":32,"layername":"UI","tags":"Untagged Layer5"}}},{"children":[75],"name":"ScreenOverlay","extras":{"metadata":{"guid":"929daa43-a8bd-42e7-b0a1-36d48d486d62","layer":5,"layermask":32,"layername":"UI","tags":"Untagged Layer5"}}},{"children":[76],"name":"Panel","extras":{"metadata":{"guid":"0b648189-42c1-4a24-928e-00de0aa8dfd0","layer":5,"layermask":32,"layername":"UI","tags":"Untagged Layer5"}}},{"children":[77,83,104,112,121],"translation":[0.0,341.52597,0.0],"name":"StepForm","extras":{"metadata":{"guid":"c2f7c769-7496-49aa-bc7e-95cd2a1693cc","layer":5,"layermask":32,"layername":"UI","tags":"Untagged Layer5"}}},{"children":[78,79],"translation":[0.0,-40.4,0.0],"name":"FormHeader","extras":{"metadata":{"guid":"9fa7e8e5-ffa9-49eb-b15b-7ad000750388","layer":5,"layermask":32,"layername":"UI","tags":"Untagged Layer5"}}},{"translation":[-54.0,-2.0,0.0],"name":"FormHeading","extras":{"metadata":{"guid":"c1cfcf1b-40de-4fa4-ace8-e286501ddaeb","layer":5,"layermask":32,"layername":"UI","tags":"Untagged Layer5"}}},{"children":[80,81],"translation":[174.0,-2.0,0.0],"name":"FormMeta","extras":{"metadata":{"guid":"1a9ca403-e404-46d9-8166-47692018cf53","layer":5,"layermask":32,"layername":"UI","tags":"Untagged Layer5"}}},{"translation":[19.5200043,12.0,0.0],"name":"DateLabel","extras":{"metadata":{"guid":"c70fe3a6-7a72-4bb1-b329-15a85f56f748","layer":5,"layermask":32,"layername":"UI","tags":"Untagged Layer5"}}},{"children":[82],"translation":[28.0,-8.4,0.0],"name":"LangPillBtn","extras":{"metadata":{"guid":"fcbc7611-c6cc-4982-943d-5e212cbbcdf0","layer":5,"layermask":32,"layername":"UI","tags":"Untagged Layer5"}}},{"name":"Text","extras":{"metadata":{"guid":"d5f3ad4b-67eb-4c6f-a840-2fe9b77741cc","layer":5,"layermask":32,"layername":"UI","tags":"Untagged Layer5"}}},{"children":[84,89],"translation":[0.0,-178.8,0.0],"name":"BookRow","extras":{"metadata":{"guid":"9731d26f-d0f5-444a-a969-8e0196df81d2","layer":5,"layermask":32,"layername":"UI","tags":"Untagged Layer5"}}},{"children":[85,87],"translation":[-170.0,-6.0,0.0],"name":"CoverCol","extras":{"metadata":{"guid":"6f5fbc3c-bc55-48d5-8212-8005e781fd1d","layer":5,"layermask":32,"layername":"UI","tags":"Untagged Layer5"}}},{"children":[86],"translation":[0.0,5.0,0.0],"name":"CoverFrame","extras":{"metadata":{"guid":"584b8275-d3d9-458e-90fd-5f150f3d3bf8","layer":5,"layermask":32,"layername":"UI","tags":"Untagged Layer5"}}},{"name":"CoverPlaceholder","extras":{"metadata":{"guid":"65ca6e53-31f4-4ad8-9747-ac5746058d99","layer":5,"layermask":32,"layername":"UI","tags":"Untagged Layer5"}}},{"children":[88],"translation":[0.0,-88.0,0.0],"name":"FindCoverBtn","extras":{"metadata":{"guid":"18215b1a-91d5-4549-8990-d027fc9317a8","layer":5,"layermask":32,"layername":"UI","tags":"Untagged Layer5"}}},{"name":"Text","extras":{"metadata":{"guid":"818778e1-a724-4760-9f14-2457938e3bde","layer":5,"layermask":32,"layername":"UI","tags":"Untagged Layer5"}}},{"children":[90,91,95,96,97,98,102,103],"translation":[68.0,28.0,0.0],"name":"DetailsCol","extras":{"metadata":{"guid":"71c9bcb5-f89a-4e56-ac98-b7e92348b97b","layer":5,"layermask":32,"layername":"UI","tags":"Untagged Layer5"}}},{"translation":[0.0,39.5,0.0],"name":"LabelTitle","extras":{"metadata":{"guid":"fe3ccbf8-ebc1-442c-8808-2f2b4e3815e3","layer":5,"layermask":32,"layername":"UI","tags":"Untagged Layer5"}}},{"children":[92],"translation":[0.0,21.0,0.0],"name":"TitleInput","extras":{"metadata":{"guid":"37371183-802f-403f-b514-f6e36a7b9550","layer":5,"layermask":32,"layername":"UI","tags":"Untagged Layer5"}}},{"children":[93,94],"translation":[0.0,1.0,0.0],"name":"Text Area","extras":{"metadata":{"guid":"0b4ea533-20f7-4c8c-88d9-95c53b0760f6"}}},{"name":"Placeholder","extras":{"metadata":{"guid":"fb1668c2-fd90-465d-adb9-8a4c817d9bdc"}}},{"name":"Text","extras":{"metadata":{"guid":"216ca2a2-6ffe-4984-91ec-c1c78fe90808"}}},{"translation":[0.0,9.0,0.0],"name":"TitleInput_Border","extras":{"metadata":{"guid":"ccb2f897-b035-4590-a38a-4529d010e73c"}}},{"translation":[0.0,7.5,0.0],"name":"TitleBorderLine","extras":{"metadata":{"guid":"8a4c6130-e0cb-445a-b886-837ffc68734d","layer":5,"layermask":32,"layername":"UI","tags":"Untagged Layer5"}}},{"translation":[0.0,-7.0,0.0],"name":"LabelAuthor","extras":{"metadata":{"guid":"690ce77a-d5ea-48ed-bb34-b64d37b8805b","layer":5,"layermask":32,"layername":"UI","tags":"Untagged Layer5"}}},{"children":[99],"translation":[0.0,-32.0,0.0],"name":"AuthorInput","extras":{"metadata":{"guid":"7f85fe7a-7a45-457e-a9e8-02840873e128","layer":5,"layermask":32,"layername":"UI","tags":"Untagged Layer5"}}},{"children":[100,101],"name":"Text Area","extras":{"metadata":{"guid":"3d99b032-a178-4f23-aa60-15ec842d7a83"}}},{"name":"Placeholder","extras":{"metadata":{"guid":"1e45c537-4fa7-4e6f-869e-d29b72aac265"}}},{"name":"Text","extras":{"metadata":{"guid":"e87e500e-f54d-44c5-b1af-baeae99c90ff"}}},{"translation":[0.0,-44.0,0.0],"name":"AuthorInput_Border","extras":{"metadata":{"guid":"2ab5ded2-a958-4efb-9830-833b974b0bb8"}}},{"translation":[0.0,-45.5,0.0],"name":"AuthorBorderLine","extras":{"metadata":{"guid":"e4137998-4f44-45da-bcca-285f5f93d02d","layer":5,"layermask":32,"layername":"UI","tags":"Untagged Layer5"}}},{"children":[105,106,110,111],"translation":[0.0,-386.3,0.0],"name":"ResponseSection","extras":{"metadata":{"guid":"ad4181ef-f9ee-4ff6-b918-45276b460953","layer":5,"layermask":32,"layername":"UI","tags":"Untagged Layer5"}}},{"translation":[0.0,81.0,0.0],"name":"LabelResponse","extras":{"metadata":{"guid":"1f77645c-0a0f-40ae-bcdb-684d10f4d620","layer":5,"layermask":32,"layername":"UI","tags":"Untagged Layer5"}}},{"children":[107],"translation":[0.0,-2.5,0.0],"name":"ResponseInput","extras":{"metadata":{"guid":"f773cf2d-d7ad-499f-ac7d-8e17c87c5d16","layer":5,"layermask":32,"layername":"UI","tags":"Untagged Layer5"}}},{"children":[108,109],"name":"Text Area","extras":{"metadata":{"guid":"a049afd8-f072-4d33-8c56-81b0c0312a6e"}}},{"name":"Placeholder","extras":{"metadata":{"guid":"e7e6ccce-2b37-4183-82cc-dc31479614e8"}}},{"name":"Text","extras":{"metadata":{"guid":"57e2fdc3-e50c-47d2-b9fc-2ea3f497e778"}}},{"translation":[0.0,-79.5,0.0],"name":"ResponseInput_Border","extras":{"metadata":{"guid":"5219fdbe-2101-43aa-a334-2210cc618fae"}}},{"translation":[0.0,-91.5,0.0],"name":"BorderBottom","extras":{"metadata":{"guid":"81e7de46-1c41-4c1d-88f1-a283a1c2f3da"}}},{"children":[113,117],"translation":[0.0,-531.8,0.0],"name":"ChecksSection","extras":{"metadata":{"guid":"514e0386-45a9-4e67-ab10-4bdb632fa516","layer":5,"layermask":32,"layername":"UI","tags":"Untagged Layer5"}}},{"children":[114,116],"translation":[0.0,-12.0,0.0],"name":"HandwrittenToggle","extras":{"metadata":{"guid":"0303710a-9bda-470d-9a6e-b5ada2726f1c","layer":5,"layermask":32,"layername":"UI","tags":"Untagged Layer5"}}},{"children":[115],"translation":[-224.0,0.0,0.0],"name":"Background","extras":{"metadata":{"guid":"db2a5fa3-e593-4a94-8bd7-442d631f3eee"}}},{"translation":[6.5,0.0,0.0],"name":"Checkmark","extras":{"metadata":{"guid":"80496409-4ab0-4dd1-b6b4-ec4953d3edad"}}},{"translation":[-200.0,0.0,0.0],"name":"Label","extras":{"metadata":{"guid":"b67eeaab-c6f7-4233-86c7-b923aa3f72f1","layer":5,"layermask":32,"layername":"UI","tags":"Untagged Layer5"}}},{"children":[118,120],"translation":[0.0,-37.0,0.0],"name":"NarratedToggle","extras":{"metadata":{"guid":"784a6077-ee4e-4370-948e-201bc7430b30","layer":5,"layermask":32,"layername":"UI","tags":"Untagged Layer5"}}},{"children":[119],"translation":[-224.0,0.0,0.0],"name":"Background","extras":{"metadata":{"guid":"037bb4ac-5f85-4e12-9a05-1b0f73bbb80d"}}},{"translation":[6.5,0.0,0.0],"name":"Checkmark","extras":{"metadata":{"guid":"46df4cd6-0a4d-4362-bf0a-29a049701e84"}}},{"translation":[-200.0,0.0,0.0],"name":"Label","extras":{"metadata":{"guid":"4acc4498-cfde-4fb0-92a4-87355e3bec38","layer":5,"layermask":32,"layername":"UI","tags":"Untagged Layer5"}}},{"children":[122,124],"translation":[0.0,-598.8,0.0],"name":"FormActions","extras":{"metadata":{"guid":"811032c5-f452-4766-9eee-048f4edf0bc2","layer":5,"layermask":32,"layername":"UI","tags":"Untagged Layer5"}}},{"children":[123],"translation":[-80.0,-10.0,0.0],"name":"CancelBtn","extras":{"metadata":{"guid":"e650c8b8-3209-4100-a82c-db3f2080652c","layer":5,"layermask":32,"layername":"UI","tags":"Untagged Layer5"}}},{"name":"Text","extras":{"metadata":{"guid":"4bb20043-5e2a-4acd-ae2f-c9474d2d8693"}}},{"children":[125],"translation":[144.0,-10.0,0.0],"name":"SubmitBtn","extras":{"metadata":{"guid":"0647ad60-ebe5-406c-a1b1-765355a9358a","layer":5,"layermask":32,"layername":"UI","tags":"Untagged Layer5"}}},{"name":"Text","extras":{"metadata":{"guid":"4955f708-31c4-4c1e-be56-58750b406907"}}},{"name":"Supabase","extras":{"metadata":{"guid":"a6a6847f-06aa-4890-99f4-bcc0fc853de6"}}}],"samplers":[{"minFilter":9985},{"magFilter":9728,"minFilter":9984},{"magFilter":9728,"minFilter":9984},{"magFilter":9728,"minFilter":9984},{"minFilter":9985},{"minFilter":9985},{"magFilter":9728,"minFilter":9984},{"magFilter":9728,"minFilter":9984},{"magFilter":9728,"minFilter":9984},{"minFilter":9985},{"magFilter":9728,"minFilter":9984},{"magFilter":9728,"minFilter":9984},{"minFilter":9985},{"magFilter":9728,"minFilter":9984},{"magFilter":9728,"minFilter":9984},{"minFilter":9985},{"magFilter":9728,"minFilter":9984},{"magFilter":9728,"minFilter":9984},{"minFilter":9985},{"magFilter":9728,"minFilter":9984},{"minFilter":9985},{"magFilter":9728,"minFilter":9984},{"minFilter":9985},{"minFilter":9985},{"minFilter":9985},{"minFilter":9985},{"minFilter":9985},{"minFilter":9985},{"minFilter":9985},{"minFilter":9985},{"minFilter":9985},{"minFilter":9985},{"magFilter":9728,"minFilter":9984},{"minFilter":9985},{"magFilter":9728,"minFilter":9984},{"minFilter":9985},{"magFilter":9728,"minFilter":9984},{"magFilter":9728,"minFilter":9984}],"scene":0,"scenes":[{"nodes":[0,5,14,19,22,23,29,30,39,40,58,59,60,126],"name":"V2","extras":{"metadata":{"gltf":true,"license":"community","licensee":"Jo & Mashi","filename":"V2","script":"thisremindedmeofyou","project":"ThisRemindedMeOfYou.js","intensity":1.0,"debugging":false,"properties":true,"disposeroot":false,"webptextures":false,"webplightmaps":false,"ktxtextures":false,"ktxlightmaps":false,"rendergroups":4,"rawmaterials":[],"enablelegacyaudio":false,"snapshotrendering":0,"colliderinstances":true,"reparentcolliders":true,"defaultrendergroup":0,"colliderrendergroup":0,"globalillumination":false,"prewarmup":1.0,"hideloader":true,"exposure":1,"tonemapping":0,"gammacorrection":1,"trianglenormals":true,"deltaworldstep":false,"subtimestep":0.0,"contextmenu":true,"pointerlock":false,"preventdefault":false,"ccdpenetration":0.0001,"ccdenabled":true,"maxworldsweep":0,"enableinput":true,"usecapture":false,"userinput":null,"showdebugcolliders":false,"collidervisibility":0.5,"collisionwireframe":true,"navigation":{"prebaked":null,"heightmesh":null,"showdebug":false,"timesteps":0.0,"areatable":[],"offmeshlinks":null},"autoclear":true,"clearcolor":{"r":1.0,"g":0.8663623,"b":0.6933962,"a":1.0},"sunposition":{"x":0.0,"y":50.0,"z":0.0},"sunrotation":{"x":0.373247355,"y":-0.203897819,"z":0.08445724,"w":0.9010989},"enablephysics":true,"defaultgravity":{"x":0.0,"y":-9.81,"z":0.0},"freezeactivemeshes":false,"performancepriority":0,"imageprocessing":{"contrast":1.0,"exposure":1.0},"ambientlightintensity":0.8,"ambientspecularcolor":{"r":0.0,"g":0.0,"b":0.0,"a":1.0},"ambientgroundcolor":{"r":0.0,"g":0.0,"b":0.0,"a":1.0},"ambientoverride":false,"ambientskycolor":{"r":0.0,"g":0.0,"b":0.0,"a":1.0},"ambientcoloring":{"r":0.0,"g":0.0,"b":0.0,"a":1.0},"ambientlighting":1,"ambientlightmap":2,"ambientskymode":"skybox","skyreflections":true,"lightmaplevel":0.5,"windzones":[],"fogtype":"None","fogmode":0,"fogdensity":0.01,"fogcolor":{"r":0.5,"g":0.5,"b":0.5,"a":1.0},"fogstart":0.0,"fogend":300.0,"skybox":{"skyurl":null,"skyres":1024,"skyfog":false,"skytags":"","skysize":10000.0,"skyfaces":"png","sixsided":true,"basename":"assets/Default-Skybox","anisolevel":1,"exposure":1.3,"rotation":0.0,"maxreflect":false,"hdrskybox":false,"rendergroup":0,"extensions":["_px.png","_py.png","_pz.png","_nx.png","_ny.png","_nz.png"],"polynomial":1.0,"environment":null}}}}],"textures":[{"sampler":0,"source":0,"name":"chair_albedo"},{"sampler":1,"source":1,"name":"chair_gloss_26e061251a199394e8e8e57d8f984161"},{"sampler":2,"source":2,"name":"chair_ao_26e061251a199394e8e8e57d8f984161"},{"sampler":3,"source":3,"name":"chair_normal"},{"sampler":4,"source":4,"name":"round_wooden_table_01_diff_4k"},{"sampler":5,"source":5,"name":"a_The-Island-Of-Red-Spider-Lilies"},{"sampler":6,"source":6,"name":"Book_m_005fb97e3ffbb6842ac8dd993acccd26"},{"sampler":7,"source":7,"name":"Book_m_005fb97e3ffbb6842ac8dd993acccd26"},{"sampler":8,"source":8,"name":"Book_n"},{"sampler":9,"source":9,"name":"brick_4_diff_4k"},{"sampler":10,"source":10,"name":"brick_4_AO_4k_0f5247707726c4840aaf49a71cd9deb6"},{"sampler":11,"source":11,"name":"brick_4_nor_4k"},{"sampler":12,"source":12,"name":"PlasterWhite 00"},{"sampler":13,"source":13,"name":"PlasterWhite 00 S_056e90600b899a34fb93aced4f3ba9a7"},{"sampler":14,"source":14,"name":"PlasterWhite 00 N"},{"sampler":15,"source":15,"name":"plintus_Albedo"},{"sampler":16,"source":16,"name":"plintus_Occlusion_a062f1ce703b8164ab77a7d00b9890cc"},{"sampler":17,"source":17,"name":"plintus_NormalMap"},{"sampler":18,"source":18,"name":"window_Albedo"},{"sampler":19,"source":19,"name":"window_NormalMap"},{"sampler":20,"source":20,"name":"prop_books_01_mt_Base_Color"},{"sampler":21,"source":21,"name":"prop_books_01_mt_Normal_OpenGL"},{"sampler":22,"source":22,"name":"cp4"},{"sampler":23,"source":23,"name":"cp7"},{"sampler":24,"source":24,"name":"cp1"},{"sampler":25,"source":25,"name":"cp2"},{"sampler":26,"source":26,"name":"cp5"},{"sampler":27,"source":27,"name":"cp10"},{"sampler":28,"source":28,"name":"cp8"},{"sampler":29,"source":29,"name":"cp6"},{"sampler":30,"source":30,"name":"cp3"},{"sampler":31,"source":31,"name":"shkaff_Mat_albedo"},{"sampler":32,"source":32,"name":"shkaff_Mat_roughness"},{"sampler":33,"source":33,"name":"shkaff_silver_albedo"},{"sampler":34,"source":34,"name":"shkaff_silver_normal"},{"sampler":35,"source":35,"name":"parquet 2"},{"sampler":36,"source":36,"name":"parquet 2 S_3e66e29dccd11d04c841b6467bc5734c"},{"sampler":37,"source":37,"name":"parquet 2 N"}]}